<svg width="200" height="200" viewBox="0 0 200 200" fill="none" xmlns="http://www.w3.org/2000/svg">
<path fill-rule="evenodd" clip-rule="evenodd" d="M96.5 39H76.5V59H96.5V39ZM66 48.5L10 160H33L66 93.5L100.5 160H190.5V141C185.667 141.667 176.4 142.6 178 141C180 139 189.5 119 189.5 102.5C189.5 86 172.5 49.5 135 49.5C105 49.5 89 71.5 84.5 83L66 48.5ZM97.5 104C97.5 83.5655 114.065 67 134.5 67C154.935 67 171.5 83.5655 171.5 104C171.5 124.435 154.935 141 134.5 141C114.065 141 97.5 124.435 97.5 104Z" fill="#1E293B"/>
</svg>
