<svg width="1441" height="900" viewBox="0 0 1441 900" fill="none" xmlns="http://www.w3.org/2000/svg">
<g clip-path="url(#clip0)">
<rect width="1440" height="900" transform="translate(0.5)" fill="black"/>
<!-- <path d="M387.525 419.326H400.293V374.05H419.949V363.298H367.953V374.05H387.525V419.326ZM439.066 363.298H426.214V395.554C426.214 403.282 426.802 406.474 428.902 409.918C433.102 416.974 441.922 420.922 453.598 420.922C464.182 420.922 472.414 417.73 477.034 411.766C480.058 407.818 480.982 404.374 480.982 396.142V363.298H468.13V395.05C468.13 399.082 467.794 401.518 466.87 403.534C464.854 408.322 460.486 410.59 453.598 410.59C447.298 410.59 443.182 408.658 440.914 404.71C439.57 402.442 439.066 399.754 439.066 395.05V363.298ZM489.241 400.426C490.081 414.034 499.489 420.922 517.381 420.922C535.693 420.922 546.277 413.95 546.277 401.854C546.277 396.814 544.093 392.446 540.481 390.094C537.037 387.826 533.341 386.818 522.337 385.054C513.013 383.542 510.913 383.206 508.561 382.534C505.789 381.694 504.529 380.266 504.529 377.914C504.529 374.134 508.813 372.118 516.793 372.118C524.941 372.118 528.637 374.302 529.393 379.678H544.093C543.841 374.974 542.413 371.782 539.053 368.422C534.601 363.886 527.461 361.702 516.877 361.702C499.741 361.702 490.081 368.17 490.081 379.678C490.081 384.718 492.265 388.918 496.129 391.27C499.909 393.538 501.757 394.042 514.357 395.974C528.301 398.158 531.073 399.418 531.073 403.45C531.073 407.986 526.621 410.59 518.893 410.59C509.401 410.59 504.865 407.482 504.277 400.426H489.241ZM577.409 419.326H590.093V396.478H622.601V386.482H590.093V373.966H625.877V363.298H577.409V419.326ZM633.765 419.326H646.617V363.298H633.765V419.326ZM658.292 419.326H670.724V381.358L701.972 419.326H716.084V363.298H703.652V401.266L672.488 363.298H658.292V419.326ZM722.221 419.326H736.249L741.961 406.726H768.169L774.133 419.326H789.337L761.869 363.298H749.101L722.221 419.326ZM746.581 396.814L754.981 378.166L763.633 396.814H746.581ZM794.956 419.326H807.388V381.358L838.636 419.326H852.748V363.298H840.316V401.266L809.152 363.298H794.956V419.326ZM860.573 419.326H919.121V408.658H878.465L917.945 374.218V363.298H861.749V373.966H900.137L860.573 408.826V419.326ZM920.9 419.326H934.928L940.64 406.726H966.848L972.812 419.326H988.016L960.548 363.298H947.78L920.9 419.326ZM945.26 396.814L953.66 378.166L962.312 396.814H945.26ZM990.78 400.426C991.62 414.034 1001.03 420.922 1018.92 420.922C1037.23 420.922 1047.82 413.95 1047.82 401.854C1047.82 396.814 1045.63 392.446 1042.02 390.094C1038.58 387.826 1034.88 386.818 1023.88 385.054C1014.55 383.542 1012.45 383.206 1010.1 382.534C1007.33 381.694 1006.07 380.266 1006.07 377.914C1006.07 374.134 1010.35 372.118 1018.33 372.118C1026.48 372.118 1030.18 374.302 1030.93 379.678H1045.63C1045.38 374.974 1043.95 371.782 1040.59 368.422C1036.14 363.886 1029 361.702 1018.42 361.702C1001.28 361.702 991.62 368.17 991.62 379.678C991.62 384.718 993.804 388.918 997.668 391.27C1001.45 393.538 1003.3 394.042 1015.9 395.974C1029.84 398.158 1032.61 399.418 1032.61 403.45C1032.61 407.986 1028.16 410.59 1020.43 410.59C1010.94 410.59 1006.4 407.482 1005.82 400.426H990.78ZM1055.71 419.326H1061.34C1061.34 423.106 1059.16 427.558 1055.71 431.086H1063.36C1067.56 426.214 1069.07 422.182 1069.07 415.546V406.81H1055.71V419.326ZM366.138 520.326H378.906V499.326H394.446C402.09 499.326 404.274 501.678 405.114 510.918C405.786 517.47 405.786 517.806 406.374 520.326H420.57C419.142 517.386 418.974 516.798 418.386 508.986C417.798 498.234 415.782 495.126 408.726 493.614C412.002 492.438 413.514 491.682 415.11 490.338C418.302 487.65 419.982 483.954 419.982 479.334C419.982 473.454 417.294 468.582 412.842 466.23C409.986 464.802 406.458 464.298 399.066 464.298H366.138V520.326ZM378.906 488.994V474.966H395.538C399.15 474.966 400.326 475.05 401.67 475.554C404.358 476.394 405.87 478.746 405.87 481.77C405.87 484.794 404.358 487.146 401.754 488.238C400.326 488.826 399.234 488.994 395.538 488.994H378.906ZM429.384 520.326H479.868V509.574H442.152V496.47H475.332V486.474H442.152V475.05H479.868V464.298H429.384V520.326ZM488.939 520.326H501.791V464.298H488.939V520.326ZM513.466 520.326H525.898V482.358L557.146 520.326H571.258V464.298H558.826V502.266L527.662 464.298H513.466V520.326ZM617.386 520.326L641.998 464.298H627.634L610.498 505.374L592.522 464.298H577.066L602.854 520.326H617.386ZM647.751 520.326H698.235V509.574H660.519V496.47H693.699V486.474H660.519V475.05H698.235V464.298H647.751V520.326ZM707.306 520.326H719.738V482.358L750.986 520.326H765.098V464.298H752.666V502.266L721.502 464.298H707.306V520.326ZM791.57 520.326H804.338V475.05H823.994V464.298H771.998V475.05H791.57V520.326ZM817.91 520.326H831.938L837.65 507.726H863.858L869.822 520.326H885.026L857.558 464.298H844.79L817.91 520.326ZM842.27 497.814L850.67 479.166L859.322 497.814H842.27ZM890.646 520.326H918.366C926.934 520.326 932.478 519.402 936.51 517.302C945.162 512.766 950.454 503.106 950.454 491.934C950.454 482.358 946.506 474.042 939.45 468.918C934.83 465.558 929.37 464.298 919.542 464.298H890.646V520.326ZM903.498 509.658V475.05H917.106C921.978 475.05 924.498 475.302 926.682 476.058C932.73 478.074 936.174 483.954 936.174 492.438C936.174 500.166 933.402 505.626 928.362 508.146C925.842 509.322 923.406 509.658 917.274 509.658H903.498ZM950.801 520.326H964.829L970.541 507.726H996.749L1002.71 520.326H1017.92L990.449 464.298H977.681L950.801 520.326ZM975.161 497.814L983.561 479.166L992.213 497.814H975.161ZM1020.68 501.426C1021.52 515.034 1030.93 521.922 1048.82 521.922C1067.13 521.922 1077.72 514.95 1077.72 502.854C1077.72 497.814 1075.53 493.446 1071.92 491.094C1068.48 488.826 1064.78 487.818 1053.78 486.054C1044.45 484.542 1042.35 484.206 1040 483.534C1037.23 482.694 1035.97 481.266 1035.97 478.914C1035.97 475.134 1040.25 473.118 1048.23 473.118C1056.38 473.118 1060.08 475.302 1060.83 480.678H1075.53C1075.28 475.974 1073.85 472.782 1070.49 469.422C1066.04 464.886 1058.9 462.702 1048.32 462.702C1031.18 462.702 1021.52 469.17 1021.52 480.678C1021.52 485.718 1023.7 489.918 1027.57 492.27C1031.35 494.538 1033.2 495.042 1045.8 496.974C1059.74 499.158 1062.51 500.418 1062.51 504.45C1062.51 508.986 1058.06 511.59 1050.33 511.59C1040.84 511.59 1036.3 508.482 1035.72 501.426H1020.68Z" fill="white"/> -->
<g opacity="0.12">
<path d="M477.62 824.729L428.915 873.434H337.947L247.985 963.396L245.771 961.182L336.538 870.415H427.708L475.406 822.515L477.62 824.729Z" fill="white"/>
<path d="M480.035 820.1C482.047 822.113 482.047 825.132 480.035 827.144C478.022 829.157 475.003 829.157 472.991 827.144C470.978 825.132 470.978 822.113 472.991 820.1C475.003 818.289 478.223 818.289 480.035 820.1Z" fill="white"/>
<path d="M476.613 831.371C480.837 831.371 484.261 827.947 484.261 823.723C484.261 819.499 480.837 816.075 476.613 816.075C472.39 816.075 468.966 819.499 468.966 823.723C468.966 827.947 472.39 831.371 476.613 831.371Z" fill="white"/>
<path d="M301.922 878.264L313.796 875.044L305.142 866.39L301.922 878.264Z" fill="white"/>
<path d="M294.475 885.71L306.35 882.49L297.695 873.836L294.475 885.71Z" fill="white"/>
<path d="M287.029 893.157L298.903 889.937L290.249 881.283L287.029 893.157Z" fill="white"/>
<path d="M279.582 900.603L291.456 897.584L282.601 888.93L279.582 900.603Z" fill="white"/>
<path d="M271.935 908.251L283.809 905.031L275.155 896.377L271.935 908.251Z" fill="white"/>
<path d="M275.154 829.157L323.859 780.452H414.827L504.789 690.49L507.003 692.704L416.236 783.673H325.066L277.368 831.371L275.154 829.157Z" fill="white"/>
<path d="M272.739 833.786C270.727 831.773 270.727 828.754 272.739 826.742C274.752 824.729 277.771 824.729 279.783 826.742C281.796 828.754 281.796 831.773 279.783 833.786C277.771 835.798 274.551 835.798 272.739 833.786Z" fill="white"/>
<path d="M500.966 696.528C498.148 693.71 498.148 689.484 500.966 686.666C503.783 683.849 508.01 683.849 510.827 686.666C513.645 689.484 513.645 693.71 510.827 696.528C508.211 699.346 503.783 699.346 500.966 696.528Z" fill="white"/>
<path d="M270.727 835.798C267.708 832.779 267.708 827.949 270.727 825.132C273.746 822.113 278.576 822.113 281.393 825.132C284.412 828.151 284.412 832.981 281.393 835.798C278.576 838.616 273.746 838.616 270.727 835.798Z" fill="white"/>
<path d="M450.853 775.824L438.979 779.044L447.633 787.698L450.853 775.824Z" fill="white"/>
<path d="M458.299 768.377L446.425 771.396L455.079 780.05L458.299 768.377Z" fill="white"/>
<path d="M465.746 760.729L453.871 763.949L462.525 772.603L465.746 760.729Z" fill="white"/>
<path d="M473.192 753.283L461.519 756.503L470.173 765.157L473.192 753.283Z" fill="white"/>
<path d="M480.84 745.836L468.966 749.056L477.62 757.71L480.84 745.836Z" fill="white"/>
<path d="M488.286 738.39L476.412 741.409L485.066 750.063L488.286 738.39Z" fill="white"/>
<path d="M495.733 730.742L483.859 733.962L492.513 742.616L495.733 730.742Z" fill="white"/>
<path d="M503.18 723.295L491.507 726.515L500.161 735.17L503.18 723.295Z" fill="white"/>
<path d="M413.62 702.163L354.048 761.736H242.752L132.866 871.622L130.048 869.006L241.142 757.912H352.639L411.004 699.346L413.62 702.163Z" fill="white"/>
<path d="M412.412 706.792C415.747 706.792 418.45 704.089 418.45 700.754C418.45 697.42 415.747 694.717 412.412 694.717C409.078 694.717 406.375 697.42 406.375 700.754C406.375 704.089 409.078 706.792 412.412 706.792Z" fill="white"/>
<path d="M131.457 878.666C136.125 878.666 139.91 874.882 139.91 870.213C139.91 865.545 136.125 861.761 131.457 861.761C126.788 861.761 123.004 865.545 123.004 870.213C123.004 874.882 126.788 878.666 131.457 878.666Z" fill="white"/>
<path d="M412.412 710.012C417.525 710.012 421.67 705.867 421.67 700.754C421.67 695.641 417.525 691.497 412.412 691.497C407.299 691.497 403.155 695.641 403.155 700.754C403.155 705.867 407.299 710.012 412.412 710.012Z" fill="white"/>
<path d="M198.878 767.371L213.368 763.547L202.903 752.88L198.878 767.371Z" fill="white"/>
<path d="M189.821 776.629L204.312 772.805L193.645 762.138L189.821 776.629Z" fill="white"/>
<path d="M180.564 785.887L195.054 781.861L184.589 771.396L180.564 785.887Z" fill="white"/>
<path d="M171.507 794.943L185.998 791.119L175.331 780.453L171.507 794.943Z" fill="white"/>
<path d="M162.249 804.201L176.74 800.176L166.274 789.71L162.249 804.201Z" fill="white"/>
<path d="M153.193 813.257L167.683 809.434L157.016 798.767L153.193 813.257Z" fill="white"/>
<path d="M143.935 822.515L158.425 818.49L147.758 808.025L143.935 822.515Z" fill="white"/>
<path d="M134.878 831.572L149.368 827.748L138.702 817.081L134.878 831.572Z" fill="white"/>
<path d="M265.494 -46.5151L303.331 -8.67864V111.673L502.576 310.918H546.651V313.937H501.368L300.111 112.881V-7.26984L263.28 -44.3012L265.494 -46.5151Z" fill="white"/>
<path d="M538.399 122.944V125.963H403.959L214.375 -63.4208L216.588 -65.6346L405.167 122.944H538.399Z" fill="white"/>
<path d="M298.098 108.655C300.915 105.837 305.343 105.837 307.959 108.655C310.777 111.472 310.777 115.9 307.959 118.516C305.142 121.334 300.714 121.334 298.098 118.516C295.482 115.9 295.482 111.472 298.098 108.655Z" fill="white"/>
<path d="M541.419 307.698C544.236 304.881 548.664 304.881 551.28 307.698C554.098 310.516 554.098 314.944 551.28 317.56C548.463 320.378 544.035 320.378 541.419 317.56C538.601 314.944 538.601 310.516 541.419 307.698Z" fill="white"/>
<path d="M532.179 118.346V130.623H544.456V118.346H532.179Z" fill="white"/>
<path d="M447.834 148.101L437.167 141.862V154.34L447.834 148.101Z" fill="white"/>
<path d="M458.5 148.101L447.834 141.862V154.34L458.5 148.101Z" fill="white"/>
<path d="M469.368 148.101L458.5 141.862V154.34L469.368 148.101Z" fill="white"/>
<path d="M480.035 148.101L469.167 141.862V154.34L480.035 148.101Z" fill="white"/>
<path d="M490.701 148.101L480.035 141.862V154.34L490.701 148.101Z" fill="white"/>
<path d="M501.368 148.101L490.702 141.862V154.34L501.368 148.101Z" fill="white"/>
<path d="M512.035 148.101L501.368 141.862V154.34L512.035 148.101Z" fill="white"/>
<path d="M522.701 148.101L512.035 141.862V154.34L522.701 148.101Z" fill="white"/>
<path d="M349.419 187.145L398.525 236.252V328.227L489.293 418.994L487.079 421.208L395.507 329.635V237.661L347.205 189.359L349.419 187.145Z" fill="white"/>
<path d="M348.211 193.384C350.99 193.384 353.242 191.131 353.242 188.353C353.242 185.574 350.99 183.321 348.211 183.321C345.432 183.321 343.18 185.574 343.18 188.353C343.18 191.131 345.432 193.384 348.211 193.384Z" fill="white"/>
<path d="M483.255 415.17C486.073 412.352 490.5 412.352 493.117 415.17C495.934 417.987 495.934 422.415 493.117 425.031C490.299 427.849 485.871 427.849 483.255 425.031C480.437 422.415 480.437 417.987 483.255 415.17Z" fill="white"/>
<path d="M342.777 182.919C345.796 179.9 350.626 179.9 353.645 182.919C356.664 185.937 356.664 190.768 353.645 193.787C350.626 196.805 345.796 196.805 342.777 193.787C339.758 190.768 339.758 185.736 342.777 182.919Z" fill="white"/>
<path d="M403.356 364.453L400.136 352.378L391.28 361.233L403.356 364.453Z" fill="white"/>
<path d="M411.003 372.101L407.783 360.025L398.928 368.881L411.003 372.101Z" fill="white"/>
<path d="M418.45 379.547L415.23 367.673L406.576 376.327L418.45 379.547Z" fill="white"/>
<path d="M426.098 387.195L422.877 375.12L414.022 383.975L426.098 387.195Z" fill="white"/>
<path d="M433.544 394.642L430.324 382.768L421.67 391.422L433.544 394.642Z" fill="white"/>
<path d="M441.192 402.29L437.972 390.415L429.318 399.069L441.192 402.29Z" fill="white"/>
<path d="M448.84 409.937L445.62 397.862L436.765 406.717L448.84 409.937Z" fill="white"/>
<path d="M456.287 417.384L453.066 405.51L444.412 414.164L456.287 417.384Z" fill="white"/>
<path d="M389.871 82.2898L393.091 94.164L401.745 85.5099L389.871 82.2898Z" fill="white"/>
<path d="M382.224 74.642L385.444 86.7175L394.299 77.8621L382.224 74.642Z" fill="white"/>
<path d="M374.777 67.1955L377.997 79.0697L386.651 70.4156L374.777 67.1955Z" fill="white"/>
<path d="M367.129 59.5477L370.349 71.4219L379.205 62.7678L367.129 59.5477Z" fill="white"/>
<path d="M359.683 52.1012L362.903 63.9754L371.557 55.12L359.683 52.1012Z" fill="white"/>
<path d="M352.035 44.4534L355.255 56.3276L363.909 47.6735L352.035 44.4534Z" fill="white"/>
<path d="M344.387 36.8056L347.607 48.8811L356.463 40.0258L344.387 36.8056Z" fill="white"/>
<path d="M336.941 29.3591L340.161 41.2333L348.815 32.5792L336.941 29.3591Z" fill="white"/>
<path d="M323.255 284.151L292.463 253.56V156.151L131.054 -5.4585H95.4315V-7.8736H132.06L295.079 154.944V252.353L325.066 282.34L323.255 284.151Z" fill="white"/>
<path d="M102.073 146.894V144.478H210.954L364.513 298.038L362.903 299.648L209.947 146.894H102.073Z" fill="white"/>
<path d="M296.689 158.365C294.475 160.579 290.852 160.579 288.639 158.365C286.425 156.151 286.425 152.529 288.639 150.315C290.852 148.101 294.475 148.101 296.689 150.315C298.903 152.529 298.903 156.151 296.689 158.365Z" fill="white"/>
<path d="M367.733 302.868C365.519 305.082 361.897 305.082 359.683 302.868C357.469 300.654 357.469 297.032 359.683 294.818C361.897 292.604 365.519 292.604 367.733 294.818C369.947 297.032 369.947 300.654 367.733 302.868Z" fill="white"/>
<path d="M107.108 150.656V140.593H97.045V150.656H107.108Z" fill="white"/>
<path d="M329.293 278.114H318.827V288.579H329.293V278.114Z" fill="white"/>
<path d="M369.746 304.881C366.324 308.302 361.092 308.302 357.67 304.881C354.249 301.459 354.249 296.227 357.67 292.805C361.092 289.384 366.324 289.384 369.746 292.805C372.966 296.227 372.966 301.459 369.746 304.881Z" fill="white"/>
<path d="M175.331 126.566L184.186 131.598V121.535L175.331 126.566Z" fill="white"/>
<path d="M166.677 126.566L175.532 131.598V121.535L166.677 126.566Z" fill="white"/>
<path d="M158.023 126.566L166.677 131.598V121.535L158.023 126.566Z" fill="white"/>
<path d="M149.369 126.566L158.023 131.598V121.535L149.369 126.566Z" fill="white"/>
<path d="M140.714 126.566L149.369 131.598V121.535L140.714 126.566Z" fill="white"/>
<path d="M132.061 126.566L140.715 131.598V121.535L132.061 126.566Z" fill="white"/>
<path d="M123.406 126.566L132.06 131.598V121.535L123.406 126.566Z" fill="white"/>
<path d="M114.752 126.566L123.406 131.598V121.535L114.752 126.566Z" fill="white"/>
<path d="M255.23 94.7678L215.381 54.9188V-19.5465L141.721 -93.0056L143.532 -94.8169L217.997 -20.5528V53.9125L257.041 92.9565L255.23 94.7678Z" fill="white"/>
<path d="M256.035 97.9879C258.258 97.9879 260.06 96.1857 260.06 93.9627C260.06 91.7397 258.258 89.9376 256.035 89.9376C253.812 89.9376 252.01 91.7397 252.01 93.9627C252.01 96.1857 253.812 97.9879 256.035 97.9879Z" fill="white"/>
<path d="M260.463 98.3904C258.048 100.806 254.023 100.806 251.608 98.3904C249.192 95.9754 249.192 91.9502 251.608 89.5351C254.023 87.12 258.048 87.12 260.463 89.5351C262.878 91.9502 262.878 95.9754 260.463 98.3904Z" fill="white"/>
<path d="M222.425 179.9L219.809 170.239L212.765 177.283L222.425 179.9Z" fill="white"/>
<path d="M228.463 185.938L225.846 176.277L218.802 183.321L228.463 185.938Z" fill="white"/>
<path d="M234.702 192.177L232.085 182.516L225.041 189.56L234.702 192.177Z" fill="white"/>
<path d="M240.739 198.214L238.123 188.554L231.079 195.598L240.739 198.214Z" fill="white"/>
<path d="M246.978 204.453L244.362 194.592L237.318 201.837L246.978 204.453Z" fill="white"/>
<path d="M253.016 210.491L250.4 200.831L243.356 207.875L253.016 210.491Z" fill="white"/>
<path d="M259.255 216.73L256.639 206.868L249.595 214.114L259.255 216.73Z" fill="white"/>
<path d="M265.293 222.768L262.676 213.107L255.632 220.151L265.293 222.768Z" fill="white"/>
<path d="M254.626 511.17H251.406V560.88L139.507 674.591V740.201L59.8088 822.716H-88.9205L-98.1784 813.66L-100.392 815.874L-90.1281 825.937H61.2177L61.8214 825.534L142.727 741.408V676L254.626 562.289V511.17Z" fill="white"/>
<path d="M295.28 511.17H292.06V534.717L148.564 679.622V748.452L41.4946 859.547H-92.9455L-107.034 875.044L-104.82 877.257L-91.5367 862.767H42.9034L43.3059 862.364L151.784 749.861V680.83L295.28 536.126V511.17Z" fill="white"/>
<path d="M313.595 511.17H310.375V530.289L158.224 682.44V756.1L24.9914 889.534H-68.3921L-84.0902 875.446L-86.1028 877.861L-69.5997 892.553H26.199L161.444 757.509V683.849L313.595 531.698V511.17Z" fill="white"/>
<path d="M274.752 666.742L255.029 686.264V809.434L122.601 941.861H-71.0084V945.081H124.01L258.249 810.842V687.472L276.966 668.956L274.752 666.742Z" fill="white"/>
<path d="M247.381 670.365H244.161V806.012L119.582 930.591H-83.6879L-95.3608 942.465L-93.147 944.679L-82.2791 933.811H120.79L247.381 807.421V670.365Z" fill="white"/>
<path d="M282.601 667.748C282.601 663.924 279.582 660.905 275.758 660.905C271.935 660.905 268.916 663.924 268.916 667.748C268.916 671.572 271.935 674.591 275.758 674.591C279.582 674.591 282.601 671.572 282.601 667.748Z" fill="white"/>
<path d="M253.016 518.013C256.795 518.013 259.859 514.949 259.859 511.17C259.859 507.391 256.795 504.327 253.016 504.327C249.237 504.327 246.173 507.391 246.173 511.17C246.173 514.949 249.237 518.013 253.016 518.013Z" fill="white"/>
<path d="M300.513 511.17C300.513 507.346 297.494 504.327 293.67 504.327C289.846 504.327 286.827 507.346 286.827 511.17C286.827 514.994 289.846 518.013 293.67 518.013C297.494 518.013 300.513 514.994 300.513 511.17Z" fill="white"/>
<path d="M318.828 511.17C318.828 507.346 315.809 504.327 311.985 504.327C308.161 504.327 305.142 507.346 305.142 511.17C305.142 514.994 308.161 518.013 311.985 518.013C315.809 518.013 318.828 514.994 318.828 511.17Z" fill="white"/>
<path d="M252.614 667.748C252.614 663.924 249.595 660.905 245.771 660.905C241.947 660.905 238.928 663.924 238.928 667.748C238.928 671.572 241.947 674.591 245.771 674.591C249.595 674.591 252.614 671.572 252.614 667.748Z" fill="white"/>
<path d="M328.287 362.642H330.501V396.856L407.784 475.346V520.428L462.727 577.384H565.167L571.607 571.145L573.217 572.553L566.173 579.598H461.721L461.318 579.396L405.57 521.434V476.151L328.287 397.862V362.642Z" fill="white"/>
<path d="M300.312 362.642H302.525V378.944L401.544 478.767V526.264L475.406 602.742H567.984L577.846 613.409L576.236 615.019L566.978 604.956H474.399L473.997 604.755L399.33 527.069V479.572L300.312 379.749V362.642Z" fill="white"/>
<path d="M287.834 362.642H290.048V375.925L394.903 480.78V531.497L486.676 623.472H551.079L561.947 613.811L563.355 615.421L551.884 625.685H485.871L392.689 532.503V481.585L287.834 376.73V362.642Z" fill="white"/>
<path d="M314.601 469.912L328.085 483.396V568.327L419.456 659.497H552.89V661.71H418.45L325.871 569.132V484.201L312.991 471.321L314.601 469.912Z" fill="white"/>
<path d="M333.318 472.327H335.532V565.912L421.469 651.849H561.544L569.796 659.899L568.186 661.509L560.739 654.063H420.664L333.318 566.717V472.327Z" fill="white"/>
<path d="M309.167 470.516C309.167 467.899 311.18 465.887 313.796 465.887C316.412 465.887 318.425 467.899 318.425 470.516C318.425 473.132 316.412 475.145 313.796 475.145C311.18 475.346 309.167 473.132 309.167 470.516Z" fill="white"/>
<path d="M324.664 362.642C324.664 360.025 326.677 358.013 329.293 358.013C331.909 358.013 333.922 360.025 333.922 362.642C333.922 365.258 331.909 367.271 329.293 367.271C326.878 367.271 324.664 365.258 324.664 362.642Z" fill="white"/>
<path d="M567.582 572.151C567.582 569.534 569.594 567.522 572.211 567.522C574.827 567.522 576.84 569.534 576.84 572.151C576.84 574.767 574.827 576.78 572.211 576.78C569.594 576.78 567.582 574.767 567.582 572.151Z" fill="white"/>
<path d="M572.211 614.616C572.211 612 574.224 609.987 576.84 609.987C579.456 609.987 581.469 612 581.469 614.616C581.469 617.233 579.456 619.245 576.84 619.245C574.425 619.245 572.211 617.233 572.211 614.616Z" fill="white"/>
<path d="M552.89 665.333C555.447 665.333 557.519 663.261 557.519 660.704C557.519 658.148 555.447 656.075 552.89 656.075C550.334 656.075 548.261 658.148 548.261 660.704C548.261 663.261 550.334 665.333 552.89 665.333Z" fill="white"/>
<path d="M564.161 660.704C564.161 658.088 566.173 656.075 568.79 656.075C571.406 656.075 573.419 658.088 573.419 660.704C573.419 663.321 571.406 665.333 568.79 665.333C566.173 665.333 564.161 663.321 564.161 660.704Z" fill="white"/>
<path d="M557.922 614.616C557.922 612 559.934 609.987 562.551 609.987C565.167 609.987 567.18 612 567.18 614.616C567.18 617.233 565.167 619.245 562.551 619.245C559.934 619.245 557.922 617.233 557.922 614.616Z" fill="white"/>
<path d="M296.89 362.642C296.89 360.025 298.903 358.013 301.519 358.013C304.136 358.013 306.148 360.025 306.148 362.642C306.148 365.258 304.136 367.271 301.519 367.271C298.903 367.271 296.89 365.258 296.89 362.642Z" fill="white"/>
<path d="M284.211 362.642C284.211 360.025 286.224 358.013 288.84 358.013C291.456 358.013 293.469 360.025 293.469 362.642C293.469 365.258 291.456 367.271 288.84 367.271C286.224 367.271 284.211 365.258 284.211 362.642Z" fill="white"/>
<path d="M329.897 470.516C329.897 467.899 331.909 465.887 334.526 465.887C337.142 465.887 339.154 467.899 339.154 470.516C339.154 473.132 337.142 475.145 334.526 475.145C331.909 475.346 329.897 473.132 329.897 470.516Z" fill="white"/>
<path d="M245.167 473.333L243.758 474.742L219.406 450.591L109.318 449.786L77.5196 417.786L-1.57463 416.377L-74.0274 488.83V497.887H-76.2412V488.025L-2.58092 414.164H-1.97714L78.3247 415.572L110.325 447.572L220.413 448.377L245.167 473.333Z" fill="white"/>
<path d="M265.092 453.409L263.482 455.019L252.01 443.547L111.331 442.944L77.7208 409.334L-28.5432 407.321L-93.952 472.931L-108.443 472.327V470.113L-94.9582 470.717L-29.3483 405.107H-28.9457L78.7271 407.12L112.337 440.73L252.815 441.333L265.092 453.409Z" fill="white"/>
<path d="M273.947 444.554L272.337 446.164L263.079 436.705H114.752L78.7271 400.881H-51.0841L-96.5683 446.365L-97.3733 460.855L-99.5872 460.654L-98.7821 445.359L-52.0904 398.667H79.7334L115.557 434.491H264.085L273.947 444.554Z" fill="white"/>
<path d="M179.155 387.799H160.035L100.061 327.623H-29.1468L-123.537 422.013L-125.147 420.604L-29.9519 325.409H101.067L161.042 385.585H179.155V387.799Z" fill="white"/>
<path d="M164.06 399.271L162.652 400.881L96.4379 334.667H-25.1217L-124.14 433.686H-135.612V431.472H-125.147L-25.9268 332.453H97.2429L164.06 399.271Z" fill="white"/>
<path d="M182.576 383.371C184.387 385.183 184.387 388.201 182.576 390.013C180.765 391.824 177.746 391.824 175.935 390.013C174.123 388.201 174.123 385.183 175.935 383.371C177.746 381.56 180.765 381.56 182.576 383.371Z" fill="white"/>
<path d="M244.563 478.767C247.12 478.767 249.192 476.695 249.192 474.138C249.192 471.582 247.12 469.51 244.563 469.51C242.007 469.51 239.934 471.582 239.934 474.138C239.934 476.695 242.007 478.767 244.563 478.767Z" fill="white"/>
<path d="M264.287 458.843C266.843 458.843 268.915 456.77 268.915 454.214C268.915 451.657 266.843 449.585 264.287 449.585C261.73 449.585 259.658 451.657 259.658 454.214C259.658 456.77 261.73 458.843 264.287 458.843Z" fill="white"/>
<path d="M273.142 449.987C275.698 449.987 277.771 447.915 277.771 445.358C277.771 442.802 275.698 440.73 273.142 440.73C270.586 440.73 268.513 442.802 268.513 445.358C268.513 447.915 270.586 449.987 273.142 449.987Z" fill="white"/>
<path d="M167.884 397.862C169.696 399.673 169.696 402.692 167.884 404.503C166.073 406.315 163.054 406.315 161.243 404.503C159.431 402.692 159.431 399.673 161.243 397.862C163.054 396.05 166.073 396.05 167.884 397.862Z" fill="white"/>
<path d="M72.6896 492.252L71.0795 490.642L46.7274 514.792L-63.1593 515.598L-95.1593 547.598L-174.254 549.208L-246.706 476.554V467.497H-248.92V477.56L-175.26 551.421H-174.656L-94.3542 549.811L-62.3543 517.811L47.7336 517.006L72.6896 492.252Z" fill="white"/>
<path d="M92.4128 511.975L90.8027 510.365L79.3311 521.837L-61.348 522.44L-94.7568 556.05L-201.222 558.063L-266.631 492.453L-281.121 493.258L-280.92 495.472L-267.637 494.868L-202.027 560.277H-201.625L-93.9517 558.264L-60.3417 524.654L80.1361 524.05L92.4128 511.975Z" fill="white"/>
<path d="M101.268 520.83L99.6582 519.421L90.4004 528.679H-57.9265L-93.7504 564.503H-223.763L-269.247 519.019L-270.052 504.73H-272.266L-271.461 520.025L-224.769 566.717H-92.9454L-56.9203 530.893H91.4066L101.268 520.83Z" fill="white"/>
<path d="M6.47574 577.786H-12.4425L-72.6185 637.761H-201.625L-296.216 543.371L-297.826 544.981L-202.631 639.975H-71.6122L-11.6375 580H6.47574V577.786Z" fill="white"/>
<path d="M9.89708 582.214C11.7084 580.402 11.7084 577.384 9.89708 575.572C8.08576 573.761 5.0669 573.761 3.25558 575.572C1.44427 577.384 1.44427 580.402 3.25558 582.214C5.0669 584.025 8.08576 584.025 9.89708 582.214Z" fill="white"/>
<path d="M71.8844 496.075C74.4409 496.075 76.5133 494.003 76.5133 491.447C76.5133 488.89 74.4409 486.818 71.8844 486.818C69.3279 486.818 67.2555 488.89 67.2555 491.447C67.2555 494.003 69.3279 496.075 71.8844 496.075Z" fill="white"/>
<path d="M91.6077 515.799C94.1642 515.799 96.2366 513.726 96.2366 511.17C96.2366 508.613 94.1642 506.541 91.6077 506.541C89.0512 506.541 86.9788 508.613 86.9788 511.17C86.9788 513.726 89.0512 515.799 91.6077 515.799Z" fill="white"/>
<path d="M103.884 523.446C105.696 521.635 105.696 518.616 103.884 516.805C102.073 514.994 99.0541 514.994 97.2428 516.805C95.4314 518.616 95.4314 521.635 97.2428 523.446C99.0541 525.258 102.073 525.258 103.884 523.446Z" fill="white"/>
<path d="M250.4 264.629V262.415H215.985L137.696 185.132H92.4127L35.4568 130.39V27.749L41.897 21.51L40.2869 19.8999L33.2429 26.944V131.397L33.6454 131.598L91.6076 187.346H136.689L215.18 264.629H250.4Z" fill="white"/>
<path d="M250.4 292.604V290.39H234.098L134.274 191.371H86.7774L10.0983 117.711V24.9314L-0.568368 15.271L-1.97717 16.8811L7.88445 25.9377V118.717L8.28697 118.919L85.7712 193.585H133.268L233.092 292.604H250.4Z" fill="white"/>
<path d="M250.4 305.283V303.069H237.117L132.262 198.214H81.5449L-10.4298 106.239V42.0383L-0.769477 31.1704L-2.37954 29.7616L-12.6437 41.032V107.246L80.5386 200.428H131.256L236.312 305.283H250.4Z" fill="white"/>
<path d="M143.13 278.516L129.645 265.032H44.7147L-46.6563 173.661V40.0257H-48.8701V174.466L43.7084 267.246H128.84L141.52 279.925L143.13 278.516Z" fill="white"/>
<path d="M140.715 259.598V257.384H47.1297L-38.8073 171.447V31.3717L-46.8576 23.3214L-48.4677 24.9314L-41.0211 32.3779V172.453L46.1234 259.598H140.715Z" fill="white"/>
<path d="M142.324 283.95C144.941 283.95 146.953 281.937 146.953 279.321C146.953 276.705 144.941 274.692 142.324 274.692C139.708 274.692 137.696 276.705 137.696 279.321C137.696 281.736 139.708 283.95 142.324 283.95Z" fill="white"/>
<path d="M250.4 268.252C253.016 268.252 255.029 266.239 255.029 263.623C255.029 261.007 253.016 258.994 250.4 258.994C247.784 258.994 245.771 261.007 245.771 263.623C245.771 266.239 247.784 268.252 250.4 268.252Z" fill="white"/>
<path d="M40.6895 25.334C43.3058 25.334 45.3184 23.3214 45.3184 20.705C45.3184 18.0887 43.3058 16.0761 40.6895 16.0761C38.0731 16.0761 36.0605 18.0887 36.0605 20.705C36.0605 23.3214 38.0731 25.334 40.6895 25.334Z" fill="white"/>
<path d="M-1.57465 20.7049C1.0417 20.7049 3.05427 18.6924 3.05427 16.076C3.05427 13.4597 1.0417 11.4471 -1.57465 11.4471C-4.191 11.4471 -6.20358 13.4597 -6.20358 16.076C-6.40484 18.6924 -4.191 20.7049 -1.57465 20.7049Z" fill="white"/>
<path d="M-1.57469 35.1955C1.04166 35.1955 3.05424 33.1829 3.05424 30.5666C3.05424 27.9502 1.04166 25.9377 -1.57469 25.9377C-4.19103 25.9377 -6.20361 27.9502 -6.20361 30.5666C-6.20361 33.1829 -4.19103 35.1955 -1.57469 35.1955Z" fill="white"/>
<path d="M250.4 296.227C253.016 296.227 255.029 294.214 255.029 291.598C255.029 288.981 253.016 286.969 250.4 286.969C247.784 286.969 245.771 288.981 245.771 291.598C245.57 294.013 247.784 296.227 250.4 296.227Z" fill="white"/>
<path d="M250.4 308.906C253.016 308.906 255.029 306.893 255.029 304.277C255.029 301.661 253.016 299.648 250.4 299.648C247.784 299.648 245.771 301.661 245.771 304.277C245.57 306.692 247.784 308.906 250.4 308.906Z" fill="white"/>
<path d="M142.324 263.221C144.941 263.221 146.953 261.208 146.953 258.592C146.953 255.975 144.941 253.963 142.324 253.963C139.708 253.963 137.696 255.975 137.696 258.592C137.696 261.007 139.708 263.221 142.324 263.221Z" fill="white"/>
<path d="M332.11 962.993V960.779H366.525L444.815 883.496H490.098L547.053 828.754V726.113L540.613 719.874L542.223 718.264L549.267 725.308V829.559L548.865 829.962L490.903 885.71H445.821L367.33 962.993H332.11Z" fill="white"/>
<path d="M332.11 990.968V988.754H348.412L448.236 889.735H495.733L572.412 816.075V723.295L583.079 713.635L584.487 715.245L574.626 724.302V817.081L574.223 817.283L496.739 891.949H449.242L349.419 990.968H332.11Z" fill="white"/>
<path d="M332.11 1003.65V1001.43H345.393L450.249 896.578H500.965L592.94 804.603V740.201L583.28 729.534L584.89 728.126L595.154 739.396V805.61L501.972 898.792H451.255L346.198 1003.65H332.11Z" fill="white"/>
<path d="M439.381 976.88L452.865 963.396H537.796L629.167 872.025V738.39H631.381V872.83L538.802 965.61H453.871L440.991 978.289L439.381 976.88Z" fill="white"/>
<path d="M441.796 957.962V955.748H535.381L621.318 869.811V729.736L629.368 721.685L630.978 723.295L623.532 730.742V870.817L536.387 957.962H441.796Z" fill="white"/>
<path d="M541.821 723.698C544.378 723.698 546.45 721.625 546.45 719.069C546.45 716.512 544.378 714.44 541.821 714.44C539.265 714.44 537.192 716.512 537.192 719.069C537.192 721.625 539.265 723.698 541.821 723.698Z" fill="white"/>
<path d="M584.085 719.069C581.469 719.069 579.456 717.056 579.456 714.44C579.456 711.824 581.469 709.811 584.085 709.811C586.701 709.811 588.714 711.824 588.714 714.44C588.714 717.056 586.701 719.069 584.085 719.069Z" fill="white"/>
<path d="M630.173 743.22C627.557 743.22 625.544 741.207 625.544 738.591C625.544 735.975 627.557 733.962 630.173 733.962C632.79 733.962 634.802 735.975 634.802 738.591C635.003 741.006 632.79 743.22 630.173 743.22Z" fill="white"/>
<path d="M630.173 727.119C627.557 727.119 625.544 725.107 625.544 722.49C625.544 719.874 627.557 717.861 630.173 717.861C632.79 717.861 634.802 719.874 634.802 722.49C634.802 725.107 632.79 727.119 630.173 727.119Z" fill="white"/>
<path d="M584.085 733.559C581.469 733.559 579.456 731.547 579.456 728.931C579.456 726.314 581.469 724.302 584.085 724.302C586.701 724.302 588.714 726.314 588.714 728.931C588.714 731.547 586.701 733.559 584.085 733.559Z" fill="white"/>
<path d="M567.179 103.422L518.475 54.7176H427.305L337.343 -35.2446L335.129 -33.232L426.098 57.7365H517.066L564.966 105.636L567.179 103.422Z" fill="white"/>
<path d="M569.393 107.85C571.406 105.837 571.406 102.818 569.393 100.806C567.381 98.7929 564.362 98.7929 562.349 100.806C560.337 102.818 560.337 105.837 562.349 107.85C564.362 109.862 567.582 109.862 569.393 107.85Z" fill="white"/>
<path d="M571.406 109.862C574.425 106.843 574.425 102.013 571.406 99.1955C568.387 96.1766 563.557 96.1766 560.739 99.1955C557.721 102.214 557.721 107.045 560.739 109.862C563.557 112.881 568.387 112.881 571.406 109.862Z" fill="white"/>
<path d="M391.481 49.8874L403.356 53.1075L394.701 61.7616L391.481 49.8874Z" fill="white"/>
<path d="M384.035 42.4408L395.708 45.6609L387.054 54.315L384.035 42.4408Z" fill="white"/>
<path d="M376.387 34.7931L388.261 38.0132L379.607 46.6673L376.387 34.7931Z" fill="white"/>
<path d="M368.941 27.3465L380.815 30.5666L372.161 39.2207L368.941 27.3465Z" fill="white"/>
<path d="M361.494 19.8999L373.368 23.1201L364.714 31.7741L361.494 19.8999Z" fill="white"/>
<path d="M354.047 12.4534L365.72 15.4722L357.066 24.3276L354.047 12.4534Z" fill="white"/>
<path d="M346.4 4.8056L358.274 8.02572L349.62 16.6798L346.4 4.8056Z" fill="white"/>
<path d="M338.953 -2.64093L350.827 0.57919L342.173 9.23327L338.953 -2.64093Z" fill="white"/>
<path d="M417.645 -34.8422V-32.6283H451.859L530.349 44.4533H575.431L632.387 99.3967V201.837L625.947 208.277L627.557 209.887L634.601 202.843V98.3904L634.198 98.1891L576.437 42.2395H531.154L452.865 -34.8422H417.645Z" fill="white"/>
<path d="M417.645 -62.8169V-60.6031H433.947L533.771 38.2144H581.267L657.745 112.076V204.654L668.412 214.516L669.821 212.906L659.959 203.648V111.07L659.557 110.667L582.072 36.0006H534.576L434.752 -62.8169H417.645Z" fill="white"/>
<path d="M417.645 -75.4961V-73.2823H430.727L535.783 31.573H586.5L678.274 123.548V187.749L668.613 198.617L670.424 200.026L680.487 188.554V122.541L587.305 29.3591H536.588L431.733 -75.4961H417.645Z" fill="white"/>
<path d="M524.714 -48.7288L538.198 -35.2446H623.129L714.5 56.1264V189.56H716.714V55.1201L624.135 -37.4584H539.205L526.324 -50.3389L524.714 -48.7288Z" fill="white"/>
<path d="M527.33 -29.8107V-27.5969H620.915L706.651 58.1389V198.415L714.903 206.466L716.513 204.856L708.865 197.409V57.3338L621.72 -29.8107H527.33Z" fill="white"/>
<path d="M627.154 204.453C624.538 204.453 622.525 206.466 622.525 209.082C622.525 211.698 624.538 213.711 627.154 213.711C629.771 213.711 631.783 211.698 631.783 209.082C631.985 206.466 629.771 204.453 627.154 204.453Z" fill="white"/>
<path d="M669.62 208.881C667.003 208.881 664.991 210.893 664.991 213.51C664.991 216.126 667.003 218.139 669.62 218.139C672.236 218.139 674.249 216.126 674.249 213.51C674.249 210.893 672.035 208.881 669.62 208.881Z" fill="white"/>
<path d="M715.708 184.931C713.091 184.931 711.079 186.944 711.079 189.56C711.079 192.176 713.091 194.189 715.708 194.189C718.324 194.189 720.336 192.176 720.336 189.56C720.336 187.145 718.324 184.931 715.708 184.931Z" fill="white"/>
<path d="M715.708 201.032C713.091 201.032 711.079 203.044 711.079 205.661C711.079 208.277 713.091 210.29 715.708 210.29C718.324 210.29 720.336 208.277 720.336 205.661C720.336 203.044 718.324 201.032 715.708 201.032Z" fill="white"/>
<path d="M669.62 194.592C667.003 194.592 664.991 196.604 664.991 199.221C664.991 201.837 667.003 203.85 669.62 203.85C672.236 203.85 674.249 201.837 674.249 199.221C674.249 196.805 672.035 194.592 669.62 194.592Z" fill="white"/>
<path d="M963.053 824.729L1011.76 873.434H1102.73L1192.69 963.396L1194.9 961.182L1104.13 870.415H1012.96L965.267 822.515L963.053 824.729Z" fill="white"/>
<path d="M960.638 820.1C958.626 822.113 958.626 825.132 960.638 827.144C962.651 829.157 965.67 829.157 967.682 827.144C969.695 825.132 969.695 822.113 967.682 820.1C965.67 818.289 962.449 818.289 960.638 820.1Z" fill="white"/>
<path d="M964.059 831.371C968.283 831.371 971.707 827.947 971.707 823.723C971.707 819.499 968.283 816.075 964.059 816.075C959.836 816.075 956.412 819.499 956.412 823.723C956.412 827.947 959.836 831.371 964.059 831.371Z" fill="white"/>
<path d="M1138.75 878.264L1126.88 875.044L1135.53 866.39L1138.75 878.264Z" fill="white"/>
<path d="M1146.2 885.71L1134.32 882.49L1142.98 873.836L1146.2 885.71Z" fill="white"/>
<path d="M1153.64 893.157L1141.77 889.937L1150.42 881.283L1153.64 893.157Z" fill="white"/>
<path d="M1161.09 900.603L1149.22 897.584L1158.07 888.93L1161.09 900.603Z" fill="white"/>
<path d="M1168.74 908.251L1156.86 905.031L1165.52 896.377L1168.74 908.251Z" fill="white"/>
<path d="M1165.52 829.157L1116.81 780.452H1025.64L935.883 690.49L933.669 692.704L1024.44 783.673H1115.61L1163.3 831.371L1165.52 829.157Z" fill="white"/>
<path d="M1167.93 833.786C1169.95 831.773 1169.95 828.754 1167.93 826.742C1165.92 824.729 1162.9 824.729 1160.89 826.742C1158.88 828.754 1158.88 831.773 1160.89 833.786C1162.9 835.798 1166.12 835.798 1167.93 833.786Z" fill="white"/>
<path d="M939.707 696.528C942.525 693.71 942.525 689.484 939.707 686.666C936.89 683.849 932.663 683.849 929.846 686.666C927.028 689.484 927.028 693.71 929.846 696.528C932.462 699.346 936.89 699.346 939.707 696.528Z" fill="white"/>
<path d="M1164.51 838.012C1168.74 838.012 1172.16 834.588 1172.16 830.364C1172.16 826.141 1168.74 822.717 1164.51 822.717C1160.29 822.717 1156.86 826.141 1156.86 830.364C1156.86 834.588 1160.29 838.012 1164.51 838.012Z" fill="white"/>
<path d="M989.821 775.824L1001.69 779.044L993.041 787.698L989.821 775.824Z" fill="white"/>
<path d="M982.374 768.377L994.248 771.396L985.594 780.05L982.374 768.377Z" fill="white"/>
<path d="M974.927 760.729L986.801 763.949L978.147 772.603L974.927 760.729Z" fill="white"/>
<path d="M967.481 753.283L979.154 756.503L970.5 765.157L967.481 753.283Z" fill="white"/>
<path d="M959.833 745.836L971.707 749.056L963.053 757.71L959.833 745.836Z" fill="white"/>
<path d="M952.386 738.39L964.261 741.409L955.607 750.063L952.386 738.39Z" fill="white"/>
<path d="M944.94 730.742L956.814 733.962L948.16 742.616L944.94 730.742Z" fill="white"/>
<path d="M937.493 723.295L949.166 726.515L940.512 735.17L937.493 723.295Z" fill="white"/>
<path d="M724.362 824.93V777.031L679.683 732.151V643.597H677.469V732.956L722.349 777.836V824.93H724.362Z" fill="white"/>
<path d="M723.355 828.352C725.245 828.352 726.777 826.82 726.777 824.93C726.777 823.041 725.245 821.509 723.355 821.509C721.466 821.509 719.934 823.041 719.934 824.93C719.934 826.82 721.466 828.352 723.355 828.352Z" fill="white"/>
<path d="M678.475 648.427C681.092 648.427 683.305 646.214 683.305 643.597C683.305 640.981 681.092 638.767 678.475 638.767C675.859 638.767 673.645 640.981 673.645 643.597C673.645 646.214 675.859 648.427 678.475 648.427Z" fill="white"/>
<path d="M723.355 830.163C726.245 830.163 728.588 827.82 728.588 824.93C728.588 822.041 726.245 819.698 723.355 819.698C720.465 819.698 718.123 822.041 718.123 824.93C718.123 827.82 720.465 830.163 723.355 830.163Z" fill="white"/>
<path d="M664.186 712.226L668.613 719.471H659.959L664.186 712.226Z" fill="white"/>
<path d="M664.186 704.78L668.613 712.226H659.959L664.186 704.78Z" fill="white"/>
<path d="M664.186 697.333L668.613 704.78H659.959L664.186 697.333Z" fill="white"/>
<path d="M664.186 689.887L668.613 697.333H659.959L664.186 689.887Z" fill="white"/>
<path d="M664.186 682.641L668.613 690.088H659.959L664.186 682.641Z" fill="white"/>
<path d="M664.186 675.195L668.613 682.641H659.959L664.186 675.195Z" fill="white"/>
<path d="M664.186 667.748L668.613 675.195H659.959L664.186 667.748Z" fill="white"/>
<path d="M664.186 660.503L668.613 667.748H659.959L664.186 660.503Z" fill="white"/>
<path d="M694.374 644V691.899L739.255 736.78V825.333H741.267V735.974L696.588 691.094V644H694.374Z" fill="white"/>
<path d="M695.381 640.578C693.569 640.578 691.959 642.189 691.959 644C691.959 645.811 693.569 647.421 695.381 647.421C697.192 647.421 698.802 645.811 698.802 644C698.802 641.987 697.393 640.578 695.381 640.578Z" fill="white"/>
<path d="M740.261 820.503C737.644 820.503 735.431 822.717 735.431 825.333C735.431 827.949 737.644 830.163 740.261 830.163C742.877 830.163 745.091 827.949 745.091 825.333C745.091 822.717 742.877 820.503 740.261 820.503Z" fill="white"/>
<path d="M695.381 649.233C698.271 649.233 700.613 646.89 700.613 644C700.613 641.11 698.271 638.767 695.381 638.767C692.491 638.767 690.148 641.11 690.148 644C690.148 646.89 692.491 649.233 695.381 649.233Z" fill="white"/>
<path d="M754.55 756.704L750.324 749.459H758.777L754.55 756.704Z" fill="white"/>
<path d="M754.55 764.151L750.324 756.704H758.777L754.55 764.151Z" fill="white"/>
<path d="M754.55 771.597L750.324 764.151H758.777L754.55 771.597Z" fill="white"/>
<path d="M754.55 779.044L750.324 771.597H758.777L754.55 779.044Z" fill="white"/>
<path d="M754.55 786.289L750.324 778.842H758.777L754.55 786.289Z" fill="white"/>
<path d="M754.55 793.735L750.324 786.289H758.777L754.55 793.735Z" fill="white"/>
<path d="M754.55 801.182L750.324 793.735H758.777L754.55 801.182Z" fill="white"/>
<path d="M754.55 808.427L750.324 801.182H758.777L754.55 808.427Z" fill="white"/>
<path d="M1027.05 702.163L1086.63 761.736H1197.92L1307.81 871.622L1310.42 869.006L1199.53 757.912H1088.03L1029.67 699.346L1027.05 702.163Z" fill="white"/>
<path d="M1028.26 706.792C1031.6 706.792 1034.3 704.089 1034.3 700.754C1034.3 697.42 1031.6 694.717 1028.26 694.717C1024.93 694.717 1022.22 697.42 1022.22 700.754C1022.22 704.089 1024.93 706.792 1028.26 706.792Z" fill="white"/>
<path d="M1304.39 863.622C1300.96 867.044 1300.96 872.276 1304.39 875.698C1307.81 879.119 1313.04 879.119 1316.46 875.698C1319.88 872.276 1319.88 867.044 1316.46 863.622C1313.04 860.402 1307.61 860.402 1304.39 863.622Z" fill="white"/>
<path d="M1028.26 710.012C1033.37 710.012 1037.52 705.867 1037.52 700.754C1037.52 695.641 1033.37 691.497 1028.26 691.497C1023.15 691.497 1019 695.641 1019 700.754C1019 705.867 1023.15 710.012 1028.26 710.012Z" fill="white"/>
<path d="M1241.8 767.371L1227.3 763.547L1237.77 752.88L1241.8 767.371Z" fill="white"/>
<path d="M1250.85 776.629L1236.36 772.805L1247.03 762.138L1250.85 776.629Z" fill="white"/>
<path d="M1260.11 785.887L1245.62 781.861L1256.08 771.396L1260.11 785.887Z" fill="white"/>
<path d="M1269.17 794.943L1254.68 791.119L1265.34 780.453L1269.17 794.943Z" fill="white"/>
<path d="M1278.42 804.201L1263.93 800.176L1274.4 789.71L1278.42 804.201Z" fill="white"/>
<path d="M1287.48 813.257L1272.99 809.434L1283.66 798.767L1287.48 813.257Z" fill="white"/>
<path d="M1296.74 822.515L1282.25 818.49L1292.91 808.025L1296.74 822.515Z" fill="white"/>
<path d="M1305.79 831.572L1291.3 827.748L1301.97 817.081L1305.79 831.572Z" fill="white"/>
<path d="M1175.18 -46.5151L1137.34 -8.67864V111.673L938.097 310.918H894.022V313.937H939.305L1140.56 112.881V-7.26984L1177.39 -44.3012L1175.18 -46.5151Z" fill="white"/>
<path d="M902.273 122.944V125.963H1036.71L1226.3 -63.4208L1224.08 -65.6346L1035.51 122.944H902.273Z" fill="white"/>
<path d="M1137.54 120.73C1141.43 120.73 1144.59 117.576 1144.59 113.686C1144.59 109.796 1141.43 106.642 1137.54 106.642C1133.65 106.642 1130.5 109.796 1130.5 113.686C1130.5 117.576 1133.65 120.73 1137.54 120.73Z" fill="white"/>
<path d="M899.255 307.698C896.437 304.881 892.009 304.881 889.393 307.698C886.575 310.516 886.575 314.944 889.393 317.56C892.211 320.378 896.638 320.378 899.255 317.56C902.072 314.944 902.072 310.516 899.255 307.698Z" fill="white"/>
<path d="M896.197 118.289V130.566H908.474V118.289H896.197Z" fill="white"/>
<path d="M992.839 148.101L1003.51 141.862V154.34L992.839 148.101Z" fill="white"/>
<path d="M982.173 148.101L992.839 141.862V154.34L982.173 148.101Z" fill="white"/>
<path d="M971.305 148.101L982.173 141.862V154.34L971.305 148.101Z" fill="white"/>
<path d="M960.638 148.101L971.506 141.862V154.34L960.638 148.101Z" fill="white"/>
<path d="M949.971 148.101L960.638 141.862V154.34L949.971 148.101Z" fill="white"/>
<path d="M939.305 148.101L949.972 141.862V154.34L939.305 148.101Z" fill="white"/>
<path d="M928.638 148.101L939.305 141.862V154.34L928.638 148.101Z" fill="white"/>
<path d="M917.972 148.101L928.638 141.862V154.34L917.972 148.101Z" fill="white"/>
<path d="M1091.25 187.145L1042.15 236.252V328.227L951.38 418.994L953.594 421.208L1045.17 329.635V237.661L1093.47 189.359L1091.25 187.145Z" fill="white"/>
<path d="M1092.46 193.384C1095.24 193.384 1097.49 191.131 1097.49 188.353C1097.49 185.574 1095.24 183.321 1092.46 183.321C1089.68 183.321 1087.43 185.574 1087.43 188.353C1087.43 191.131 1089.68 193.384 1092.46 193.384Z" fill="white"/>
<path d="M957.418 415.17C954.6 412.352 950.173 412.352 947.556 415.17C944.739 417.987 944.739 422.415 947.556 425.031C950.374 427.849 954.802 427.849 957.418 425.031C960.236 422.415 960.236 417.987 957.418 415.17Z" fill="white"/>
<path d="M1097.9 182.919C1094.88 179.9 1090.05 179.9 1087.03 182.919C1084.01 185.937 1084.01 190.768 1087.03 193.787C1090.05 196.805 1094.88 196.805 1097.9 193.787C1100.91 190.768 1100.71 185.736 1097.9 182.919Z" fill="white"/>
<path d="M1037.32 364.453L1040.54 352.378L1049.19 361.233L1037.32 364.453Z" fill="white"/>
<path d="M1029.67 372.101L1032.89 360.025L1041.74 368.881L1029.67 372.101Z" fill="white"/>
<path d="M1022.22 379.547L1025.44 367.673L1034.1 376.327L1022.22 379.547Z" fill="white"/>
<path d="M1014.57 387.195L1017.8 375.12L1026.65 383.975L1014.57 387.195Z" fill="white"/>
<path d="M1007.13 394.642L1010.35 382.768L1019 391.422L1007.13 394.642Z" fill="white"/>
<path d="M999.481 402.29L1002.7 390.415L1011.35 399.069L999.481 402.29Z" fill="white"/>
<path d="M991.833 409.937L995.053 397.862L1003.91 406.717L991.833 409.937Z" fill="white"/>
<path d="M984.386 417.384L987.607 405.51L996.261 414.164L984.386 417.384Z" fill="white"/>
<path d="M1050.8 82.2898L1047.58 94.164L1038.73 85.5099L1050.8 82.2898Z" fill="white"/>
<path d="M1058.45 74.642L1055.23 86.7175L1046.37 77.8621L1058.45 74.642Z" fill="white"/>
<path d="M1065.9 67.1955L1062.68 79.0697L1054.02 70.4156L1065.9 67.1955Z" fill="white"/>
<path d="M1073.54 59.5477L1070.32 71.4219L1061.47 62.7678L1073.54 59.5477Z" fill="white"/>
<path d="M1080.99 52.1012L1077.77 63.9754L1069.12 55.12L1080.99 52.1012Z" fill="white"/>
<path d="M1088.64 44.4534L1085.42 56.3276L1076.56 47.6735L1088.64 44.4534Z" fill="white"/>
<path d="M1096.29 36.8056L1093.07 48.8811L1084.21 40.0258L1096.29 36.8056Z" fill="white"/>
<path d="M1103.73 29.3591L1100.51 41.2333L1091.86 32.5792L1103.73 29.3591Z" fill="white"/>
<path d="M1117.42 284.151L1148.01 253.56V156.151L1309.62 -5.4585H1345.24V-7.8736H1308.61L1145.59 154.944V252.353L1115.61 282.34L1117.42 284.151Z" fill="white"/>
<path d="M1338.6 146.894V144.478H1229.52L1076.16 298.038L1077.77 299.648L1230.73 146.894H1338.6Z" fill="white"/>
<path d="M1143.98 158.365C1146.2 160.579 1149.82 160.579 1152.03 158.365C1154.25 156.151 1154.25 152.529 1152.03 150.315C1149.82 148.101 1146.2 148.101 1143.98 150.315C1141.77 152.529 1141.77 156.151 1143.98 158.365Z" fill="white"/>
<path d="M1072.94 302.868C1075.15 305.082 1078.78 305.082 1080.99 302.868C1083.2 300.654 1083.2 297.032 1080.99 294.818C1078.78 292.604 1075.15 292.604 1072.94 294.818C1070.73 297.032 1070.73 300.654 1072.94 302.868Z" fill="white"/>
<path d="M1343.56 150.728V140.665H1333.5V150.728H1343.56Z" fill="white"/>
<path d="M1111.25 288.364H1121.72V277.898H1111.25V288.364Z" fill="white"/>
<path d="M1070.93 304.881C1074.35 308.302 1079.58 308.302 1083 304.881C1086.42 301.459 1086.42 296.227 1083 292.805C1079.58 289.384 1074.35 289.384 1070.93 292.805C1067.71 296.227 1067.71 301.459 1070.93 304.881Z" fill="white"/>
<path d="M1265.14 126.566L1256.49 131.598V121.535L1265.14 126.566Z" fill="white"/>
<path d="M1274 126.566L1265.14 131.598V121.535L1274 126.566Z" fill="white"/>
<path d="M1282.65 126.566L1274 131.598V121.535L1282.65 126.566Z" fill="white"/>
<path d="M1291.3 126.566L1282.65 131.598V121.535L1291.3 126.566Z" fill="white"/>
<path d="M1299.96 126.566L1291.3 131.598V121.535L1299.96 126.566Z" fill="white"/>
<path d="M1308.61 126.566L1299.96 131.598V121.535L1308.61 126.566Z" fill="white"/>
<path d="M1317.27 126.566L1308.61 131.598V121.535L1317.27 126.566Z" fill="white"/>
<path d="M1325.92 126.566L1317.27 131.598V121.535L1325.92 126.566Z" fill="white"/>
<path d="M1185.44 94.7678L1225.29 54.9188V-19.5465L1298.95 -93.0056L1297.14 -94.8169L1222.68 -20.5528V53.9125L1183.63 92.9565L1185.44 94.7678Z" fill="white"/>
<path d="M1184.64 97.9879C1186.86 97.9879 1188.66 96.1857 1188.66 93.9627C1188.66 91.7397 1186.86 89.9376 1184.64 89.9376C1182.41 89.9376 1180.61 91.7397 1180.61 93.9627C1180.61 96.1857 1182.41 97.9879 1184.64 97.9879Z" fill="white"/>
<path d="M1180.21 98.3904C1182.63 100.806 1186.65 100.806 1189.07 98.3904C1191.48 95.9754 1191.48 91.9502 1189.07 89.5351C1186.65 87.12 1182.63 87.12 1180.21 89.5351C1177.79 91.9502 1177.79 95.9754 1180.21 98.3904Z" fill="white"/>
<path d="M1218.25 179.9L1220.86 170.239L1227.91 177.283L1218.25 179.9Z" fill="white"/>
<path d="M1212.21 185.938L1214.83 176.277L1221.87 183.321L1212.21 185.938Z" fill="white"/>
<path d="M1205.97 192.177L1208.59 182.516L1215.63 189.56L1205.97 192.177Z" fill="white"/>
<path d="M1199.93 198.214L1202.55 188.554L1209.59 195.598L1199.93 198.214Z" fill="white"/>
<path d="M1193.69 204.453L1196.31 194.592L1203.35 201.837L1193.69 204.453Z" fill="white"/>
<path d="M1187.66 210.491L1190.27 200.831L1197.32 207.875L1187.66 210.491Z" fill="white"/>
<path d="M1181.42 216.73L1184.03 206.868L1191.08 214.114L1181.42 216.73Z" fill="white"/>
<path d="M1175.38 222.768L1178 213.107L1185.04 220.151L1175.38 222.768Z" fill="white"/>
<path d="M1186.05 511.17H1189.27V560.88L1301.17 674.591V740.201L1380.86 822.716H1529.59L1538.85 813.66L1541.07 815.874L1530.8 825.937H1379.46L1378.85 825.534L1297.95 741.408V676L1186.05 562.289V511.17Z" fill="white"/>
<path d="M1145.39 511.17H1148.61V534.717L1292.11 679.622V748.452L1399.18 859.547H1533.62L1547.71 875.044L1545.49 877.257L1532.21 862.767H1397.77L1397.37 862.364L1288.89 749.861V680.83L1145.39 536.126V511.17Z" fill="white"/>
<path d="M1127.08 511.17H1130.3V530.289L1282.45 682.44V756.1L1415.68 889.534H1509.07L1524.76 875.446L1526.78 877.861L1510.27 892.553H1414.47L1279.23 757.509V683.849L1127.08 531.698V511.17Z" fill="white"/>
<path d="M1165.92 666.742L1185.44 686.264V809.434L1318.07 941.861H1511.68V945.081H1316.66L1182.42 810.842V687.472L1163.71 668.956L1165.92 666.742Z" fill="white"/>
<path d="M1193.29 670.365H1196.51V806.012L1321.09 930.591H1524.36L1536.03 942.465L1533.82 944.679L1522.95 933.811H1319.68L1193.29 807.421V670.365Z" fill="white"/>
<path d="M1164.91 674.591C1168.69 674.591 1171.76 671.527 1171.76 667.748C1171.76 663.969 1168.69 660.905 1164.91 660.905C1161.14 660.905 1158.07 663.969 1158.07 667.748C1158.07 671.527 1161.14 674.591 1164.91 674.591Z" fill="white"/>
<path d="M1180.81 511.17C1180.81 507.346 1183.83 504.327 1187.66 504.327C1191.48 504.327 1194.5 507.346 1194.5 511.17C1194.5 514.994 1191.48 518.013 1187.66 518.013C1183.83 518.013 1180.81 514.994 1180.81 511.17Z" fill="white"/>
<path d="M1147 518.013C1150.78 518.013 1153.85 514.949 1153.85 511.17C1153.85 507.391 1150.78 504.327 1147 504.327C1143.22 504.327 1140.16 507.391 1140.16 511.17C1140.16 514.949 1143.22 518.013 1147 518.013Z" fill="white"/>
<path d="M1128.69 518.013C1132.47 518.013 1135.53 514.949 1135.53 511.17C1135.53 507.391 1132.47 504.327 1128.69 504.327C1124.91 504.327 1121.85 507.391 1121.85 511.17C1121.85 514.949 1124.91 518.013 1128.69 518.013Z" fill="white"/>
<path d="M1188.06 667.748C1188.06 663.924 1191.08 660.905 1194.9 660.905C1198.73 660.905 1201.74 663.924 1201.74 667.748C1201.74 671.572 1198.73 674.591 1194.9 674.591C1191.08 674.591 1188.06 671.572 1188.06 667.748Z" fill="white"/>
<path d="M1092.66 370.491H1090.45V404.906L1013.17 483.195V528.478L958.223 585.434H855.783L849.343 578.994L847.733 580.604L854.777 587.648H959.229L959.632 587.245L1015.38 529.283V484.201L1092.66 405.711V370.491Z" fill="white"/>
<path d="M1120.64 370.491H1118.42V386.793L1019.41 486.616V534.113L945.544 610.792H852.965L843.104 621.459L844.714 622.868L853.971 613.006H946.55L946.952 612.604L1021.62 535.12V487.623L1120.64 387.799V370.491Z" fill="white"/>
<path d="M1133.12 370.491H1130.9V383.774L1026.05 488.629V539.346L934.273 631.321H869.871L859.003 621.66L857.594 623.27L869.066 633.534H935.078L1028.26 540.352V489.635L1133.12 384.579V370.491Z" fill="white"/>
<path d="M1106.35 477.761L1092.86 491.245V576.176L1001.49 667.547H868.06V669.761H1002.5L1095.08 577.182V492.05L1107.96 479.371L1106.35 477.761Z" fill="white"/>
<path d="M1087.63 480.176H1085.42V573.761L999.481 659.698H859.405L851.154 667.748L852.764 669.358L860.21 661.912H1000.29L1087.63 574.767V480.176Z" fill="white"/>
<path d="M1111.78 478.566C1111.78 475.95 1109.77 473.937 1107.15 473.937C1104.54 473.937 1102.52 475.95 1102.52 478.566C1102.52 481.182 1104.54 483.195 1107.15 483.195C1109.77 483.195 1111.78 481.182 1111.78 478.566Z" fill="white"/>
<path d="M1096.29 370.491C1096.29 367.874 1094.27 365.862 1091.66 365.862C1089.04 365.862 1087.03 367.874 1087.03 370.491C1087.03 373.107 1089.04 375.12 1091.66 375.12C1094.07 375.321 1096.29 373.107 1096.29 370.491Z" fill="white"/>
<path d="M853.368 580.201C853.368 577.585 851.355 575.572 848.739 575.572C846.122 575.572 844.11 577.585 844.11 580.201C844.11 582.817 846.122 584.83 848.739 584.83C851.154 584.83 853.368 582.817 853.368 580.201Z" fill="white"/>
<path d="M848.739 622.465C848.739 619.849 846.726 617.836 844.11 617.836C841.494 617.836 839.481 619.849 839.481 622.465C839.481 625.082 841.494 627.094 844.11 627.094C846.525 627.295 848.739 625.082 848.739 622.465Z" fill="white"/>
<path d="M872.689 668.553C872.689 665.937 870.676 663.924 868.06 663.924C865.443 663.924 863.431 665.937 863.431 668.553C863.431 671.17 865.443 673.182 868.06 673.182C870.676 673.182 872.689 671.17 872.689 668.553Z" fill="white"/>
<path d="M856.789 668.553C856.789 665.937 854.777 663.924 852.16 663.924C849.544 663.924 847.531 665.937 847.531 668.553C847.531 671.17 849.544 673.182 852.16 673.182C854.575 673.383 856.789 671.17 856.789 668.553Z" fill="white"/>
<path d="M863.028 622.465C863.028 619.849 861.016 617.836 858.399 617.836C855.783 617.836 853.77 619.849 853.77 622.465C853.77 625.082 855.783 627.094 858.399 627.094C861.016 627.295 863.028 625.082 863.028 622.465Z" fill="white"/>
<path d="M1119.43 375.12C1121.99 375.12 1124.06 373.047 1124.06 370.491C1124.06 367.934 1121.99 365.862 1119.43 365.862C1116.87 365.862 1114.8 367.934 1114.8 370.491C1114.8 373.047 1116.87 375.12 1119.43 375.12Z" fill="white"/>
<path d="M1132.11 375.12C1134.67 375.12 1136.74 373.047 1136.74 370.491C1136.74 367.934 1134.67 365.862 1132.11 365.862C1129.55 365.862 1127.48 367.934 1127.48 370.491C1127.48 373.047 1129.55 375.12 1132.11 375.12Z" fill="white"/>
<path d="M1091.05 478.566C1091.05 475.95 1089.04 473.937 1086.42 473.937C1083.81 473.937 1081.8 475.95 1081.8 478.566C1081.8 481.182 1083.81 483.195 1086.42 483.195C1089.04 483.195 1091.05 481.182 1091.05 478.566Z" fill="white"/>
<path d="M1175.78 481.182L1177.19 482.793L1201.54 458.44L1311.63 457.635L1343.43 425.837L1422.52 424.227L1494.98 496.679V505.736H1497.19V495.874L1423.53 422.013H1422.93L1342.62 423.623L1310.63 455.422L1200.54 456.227L1175.78 481.182Z" fill="white"/>
<path d="M1155.86 461.459L1157.47 463.069L1168.94 451.396L1309.62 450.793L1343.23 417.384L1449.49 415.371L1514.9 480.78L1529.39 480.176V477.962L1515.91 478.566L1450.3 413.157H1449.9L1342.22 415.17L1308.61 448.579L1168.13 449.182L1155.86 461.459Z" fill="white"/>
<path d="M1147 452.403L1148.61 454.013L1157.87 444.755H1306.2L1342.22 408.73H1472.03L1517.52 454.214L1518.32 468.705H1520.54L1519.73 453.409L1473.04 406.516H1341.22L1305.39 442.541H1156.86L1147 452.403Z" fill="white"/>
<path d="M1241.79 395.648H1260.91L1320.89 335.673H1450.1L1544.49 430.063L1546.1 428.453L1450.9 333.459H1319.88L1259.91 393.434H1241.79V395.648Z" fill="white"/>
<path d="M1256.89 407.12L1258.3 408.73L1324.51 342.717H1446.07L1545.09 441.736H1556.56V439.522H1546.1L1446.88 340.503H1323.71L1256.89 407.12Z" fill="white"/>
<path d="M1241.79 399.271C1244.35 399.271 1246.42 397.198 1246.42 394.642C1246.42 392.085 1244.35 390.013 1241.79 390.013C1239.24 390.013 1237.17 392.085 1237.17 394.642C1237.17 397.198 1239.24 399.271 1241.79 399.271Z" fill="white"/>
<path d="M1173.17 478.566C1171.36 480.377 1171.36 483.396 1173.17 485.208C1174.98 487.019 1178 487.019 1179.81 485.208C1181.62 483.396 1181.62 480.377 1179.81 478.566C1178 476.755 1174.98 476.755 1173.17 478.566Z" fill="white"/>
<path d="M1156.66 466.893C1159.22 466.893 1161.29 464.821 1161.29 462.264C1161.29 459.708 1159.22 457.635 1156.66 457.635C1154.11 457.635 1152.03 459.708 1152.03 462.264C1152.03 464.821 1154.11 466.893 1156.66 466.893Z" fill="white"/>
<path d="M1147.81 457.837C1150.36 457.837 1152.44 455.764 1152.44 453.208C1152.44 450.651 1150.36 448.579 1147.81 448.579C1145.25 448.579 1143.18 450.651 1143.18 453.208C1143.18 455.764 1145.25 457.837 1147.81 457.837Z" fill="white"/>
<path d="M1256.29 413.761C1258.84 413.761 1260.91 411.689 1260.91 409.132C1260.91 406.576 1258.84 404.503 1256.29 404.503C1253.73 404.503 1251.66 406.576 1251.66 409.132C1251.66 411.689 1253.73 413.761 1256.29 413.761Z" fill="white"/>
<path d="M1348.26 500.101L1349.87 498.491L1374.22 522.843L1484.11 523.648L1516.11 555.648L1595.2 557.057L1667.66 484.604V475.547H1669.87V485.409L1596.21 559.27H1595.61L1515.3 557.66L1483.3 525.862L1373.22 525.057L1348.26 500.101Z" fill="white"/>
<path d="M1328.54 519.824L1330.15 518.214L1341.62 529.887L1482.3 530.491L1515.71 563.899L1622.17 565.912L1687.58 500.503L1702.07 501.107L1701.87 503.321L1688.59 502.717L1622.98 568.327H1622.57L1514.9 566.113L1481.29 532.704L1340.81 532.101L1328.54 519.824Z" fill="white"/>
<path d="M1319.68 528.881L1321.29 527.27L1330.55 536.528H1478.88L1514.7 572.553H1644.71L1690.2 527.069L1691 512.579L1693.22 512.78L1692.41 527.874L1645.72 574.767H1513.9L1477.87 538.742H1329.54L1319.68 528.881Z" fill="white"/>
<path d="M1414.47 585.635H1433.39L1493.57 645.61H1622.57L1717.17 551.22L1718.78 552.83L1623.58 647.824H1492.56L1432.59 587.849H1414.47V585.635Z" fill="white"/>
<path d="M1429.57 574.163L1430.98 572.553L1497.19 638.767H1618.75L1717.77 539.547H1729.24V541.761H1718.57L1619.56 640.981H1496.18L1429.57 574.163Z" fill="white"/>
<path d="M1411.05 590.063C1409.24 588.251 1409.24 585.233 1411.05 583.421C1412.86 581.61 1415.88 581.61 1417.69 583.421C1419.51 585.233 1419.51 588.251 1417.69 590.063C1415.88 591.874 1412.86 591.874 1411.05 590.063Z" fill="white"/>
<path d="M1349.07 503.925C1351.62 503.925 1353.69 501.852 1353.69 499.296C1353.69 496.739 1351.62 494.667 1349.07 494.667C1346.51 494.667 1344.44 496.739 1344.44 499.296C1344.44 501.852 1346.51 503.925 1349.07 503.925Z" fill="white"/>
<path d="M1326.12 522.44C1324.31 520.629 1324.31 517.61 1326.12 515.799C1327.93 513.987 1330.95 513.987 1332.76 515.799C1334.57 517.61 1334.57 520.629 1332.76 522.44C1330.95 524.252 1327.93 524.252 1326.12 522.44Z" fill="white"/>
<path d="M1317.07 531.296C1315.25 529.484 1315.25 526.465 1317.07 524.654C1318.88 522.843 1321.9 522.843 1323.71 524.654C1325.52 526.465 1325.52 529.484 1323.71 531.296C1321.9 533.107 1318.88 533.107 1317.07 531.296Z" fill="white"/>
<path d="M1428.96 576.78C1431.52 576.78 1433.59 574.707 1433.59 572.151C1433.59 569.594 1431.52 567.522 1428.96 567.522C1426.41 567.522 1424.34 569.594 1424.34 572.151C1424.34 574.707 1426.41 576.78 1428.96 576.78Z" fill="white"/>
<path d="M1190.27 264.629V262.415H1224.69L1302.98 185.132H1348.26L1405.22 130.39V27.749L1398.78 21.51L1400.39 19.8999L1407.43 26.944V131.397L1407.03 131.598L1349.07 187.346H1303.98L1225.49 264.629H1190.27Z" fill="white"/>
<path d="M1190.27 292.604V290.39H1206.57L1306.4 191.371H1353.9L1430.57 117.711V24.9314L1441.04 15.271L1442.65 16.8811L1432.79 25.9377V118.717L1432.39 118.919L1354.9 193.585H1307.4L1207.58 292.604H1190.27Z" fill="white"/>
<path d="M1190.27 305.283V303.069H1203.56L1308.41 198.214H1359.13L1451.1 106.239V42.0383L1441.44 31.1704L1443.05 29.7616L1453.32 41.032V107.246L1360.13 200.428H1309.42L1204.36 305.283H1190.27Z" fill="white"/>
<path d="M1297.54 278.516L1311.03 265.032H1395.96L1487.33 173.661V40.0257H1489.54V174.466L1396.96 267.246H1311.83L1299.15 279.925L1297.54 278.516Z" fill="white"/>
<path d="M1299.96 259.598V257.384H1393.54L1479.48 171.447V31.3717L1487.53 23.3214L1489.14 24.9314L1481.69 32.3779V172.453L1394.55 259.598H1299.96Z" fill="white"/>
<path d="M1298.35 283.95C1295.73 283.95 1293.72 281.937 1293.72 279.321C1293.72 276.705 1295.73 274.692 1298.35 274.692C1300.96 274.692 1302.98 276.705 1302.98 279.321C1302.98 281.736 1300.96 283.95 1298.35 283.95Z" fill="white"/>
<path d="M1190.27 268.252C1187.66 268.252 1185.64 266.239 1185.64 263.623C1185.64 261.007 1187.66 258.994 1190.27 258.994C1192.89 258.994 1194.9 261.007 1194.9 263.623C1194.9 266.239 1192.89 268.252 1190.27 268.252Z" fill="white"/>
<path d="M1399.98 25.334C1397.37 25.334 1395.35 23.3214 1395.35 20.705C1395.35 18.0887 1397.37 16.0761 1399.98 16.0761C1402.6 16.0761 1404.61 18.0887 1404.61 20.705C1404.61 23.3214 1402.6 25.334 1399.98 25.334Z" fill="white"/>
<path d="M1442.25 20.7049C1439.63 20.7049 1437.62 18.6924 1437.62 16.076C1437.62 13.4597 1439.63 11.4471 1442.25 11.4471C1444.86 11.4471 1446.88 13.4597 1446.88 16.076C1446.88 18.6924 1444.86 20.7049 1442.25 20.7049Z" fill="white"/>
<path d="M1442.25 35.1955C1439.63 35.1955 1437.62 33.1829 1437.62 30.5666C1437.62 27.9502 1439.63 25.9377 1442.25 25.9377C1444.86 25.9377 1446.88 27.9502 1446.88 30.5666C1446.88 33.1829 1444.86 35.1955 1442.25 35.1955Z" fill="white"/>
<path d="M1190.27 296.227C1187.66 296.227 1185.64 294.214 1185.64 291.598C1185.64 288.981 1187.66 286.969 1190.27 286.969C1192.89 286.969 1194.9 288.981 1194.9 291.598C1195.1 294.013 1192.89 296.227 1190.27 296.227Z" fill="white"/>
<path d="M1190.27 308.906C1187.66 308.906 1185.64 306.893 1185.64 304.277C1185.64 301.661 1187.66 299.648 1190.27 299.648C1192.89 299.648 1194.9 301.661 1194.9 304.277C1195.1 306.692 1192.89 308.906 1190.27 308.906Z" fill="white"/>
<path d="M1298.35 263.221C1295.73 263.221 1293.72 261.208 1293.72 258.592C1293.72 255.975 1295.73 253.963 1298.35 253.963C1300.96 253.963 1302.98 255.975 1302.98 258.592C1302.98 261.007 1300.96 263.221 1298.35 263.221Z" fill="white"/>
<path d="M1108.56 962.993V960.779H1074.15L995.858 883.496H950.575L893.619 828.754V726.113L900.06 719.874L898.45 718.264L891.406 725.308V829.559L891.808 829.962L949.77 885.71H994.852L1073.34 962.993H1108.56Z" fill="white"/>
<path d="M1108.56 990.968V988.754H1092.26L992.437 889.735H944.94L868.261 816.075V723.295L857.594 713.635L856.185 715.245L866.047 724.302V817.081L866.449 817.283L943.934 891.949H991.43L1091.25 990.968H1108.56Z" fill="white"/>
<path d="M1108.56 1003.65V1001.43H1095.28L990.424 896.578H939.707L847.733 804.603V740.201L857.393 729.534L855.783 728.126L845.519 739.396V805.61L938.701 898.792H989.418L1094.27 1003.65H1108.56Z" fill="white"/>
<path d="M1001.29 976.88L987.808 963.396H902.877L811.506 872.025V738.39H809.292V872.83L901.871 965.61H986.802L999.682 978.289L1001.29 976.88Z" fill="white"/>
<path d="M998.877 957.962V955.748H905.292L819.355 869.811V729.736L811.305 721.685L809.695 723.295L817.141 730.742V870.817L904.286 957.962H998.877Z" fill="white"/>
<path d="M898.852 723.698C901.468 723.698 903.481 721.685 903.481 719.069C903.481 716.452 901.468 714.44 898.852 714.44C896.236 714.44 894.223 716.452 894.223 719.069C894.223 721.685 896.236 723.698 898.852 723.698Z" fill="white"/>
<path d="M856.588 719.069C859.204 719.069 861.217 717.056 861.217 714.44C861.217 711.824 859.204 709.811 856.588 709.811C853.972 709.811 851.959 711.824 851.959 714.44C851.959 717.056 853.972 719.069 856.588 719.069Z" fill="white"/>
<path d="M810.5 743.22C813.116 743.22 815.129 741.207 815.129 738.591C815.129 735.975 813.116 733.962 810.5 733.962C807.883 733.962 805.871 735.975 805.871 738.591C805.67 741.006 807.883 743.22 810.5 743.22Z" fill="white"/>
<path d="M810.5 727.119C813.116 727.119 815.129 725.107 815.129 722.49C815.129 719.874 813.116 717.861 810.5 717.861C807.883 717.861 805.871 719.874 805.871 722.49C805.871 725.107 807.883 727.119 810.5 727.119Z" fill="white"/>
<path d="M856.588 733.559C859.204 733.559 861.217 731.547 861.217 728.931C861.217 726.314 859.204 724.302 856.588 724.302C853.972 724.302 851.959 726.314 851.959 728.931C851.959 731.547 853.972 733.559 856.588 733.559Z" fill="white"/>
<path d="M970.701 1095.42V1093.21H936.286L857.997 1016.13H812.714L755.758 961.182V858.742L762.198 852.302L760.588 850.691L753.544 857.735V962.188L753.946 962.591L811.909 1018.34H856.99L935.481 1095.42H970.701Z" fill="white"/>
<path d="M970.701 1123.4V1121.18H954.399L854.575 1022.36H807.079L730.399 948.503V855.924L719.733 846.062L718.324 847.673L728.186 856.93V949.509L728.588 949.911L806.072 1024.58H853.569L953.393 1123.4H970.701Z" fill="white"/>
<path d="M970.701 1136.07V1133.86H957.418L852.563 1029.01H801.846L709.871 937.031V872.83L719.532 861.962L717.922 860.553L707.657 872.025V938.037L800.84 1031.22H851.557L956.412 1136.07H970.701Z" fill="white"/>
<path d="M863.431 1109.31L849.947 1095.82H765.016L673.645 1004.45V871.018H671.431V1005.46L764.01 1098.04H848.94L861.821 1110.92L863.431 1109.31Z" fill="white"/>
<path d="M861.016 1090.39V1088.18H767.431L681.494 1002.44V862.163L673.444 854.113L671.833 855.723L679.28 863.169V1003.24L766.425 1090.39H861.016Z" fill="white"/>
<path d="M760.991 856.125C763.607 856.125 765.619 854.113 765.619 851.496C765.619 848.88 763.607 846.867 760.991 846.867C758.374 846.867 756.362 848.88 756.362 851.496C756.362 854.113 758.374 856.125 760.991 856.125Z" fill="white"/>
<path d="M718.726 851.698C721.343 851.698 723.355 849.685 723.355 847.069C723.355 844.452 721.343 842.44 718.726 842.44C716.11 842.44 714.097 844.452 714.097 847.069C713.896 849.484 716.11 851.698 718.726 851.698Z" fill="white"/>
<path d="M672.638 875.647C675.195 875.647 677.267 873.575 677.267 871.018C677.267 868.462 675.195 866.39 672.638 866.39C670.082 866.39 668.01 868.462 668.01 871.018C668.01 873.575 670.082 875.647 672.638 875.647Z" fill="white"/>
<path d="M672.638 859.547C675.255 859.547 677.267 857.534 677.267 854.918C677.267 852.301 675.255 850.289 672.638 850.289C670.022 850.289 668.01 852.301 668.01 854.918C668.01 857.534 670.022 859.547 672.638 859.547Z" fill="white"/>
<path d="M718.726 865.987C721.343 865.987 723.355 863.974 723.355 861.358C723.355 858.742 721.343 856.729 718.726 856.729C716.11 856.729 714.097 858.742 714.097 861.358C714.097 863.974 716.11 865.987 718.726 865.987Z" fill="white"/>
<path d="M873.493 103.422L922.198 54.7176H1013.37L1103.33 -35.2446L1105.54 -33.232L1014.57 57.7365H923.607L875.707 105.636L873.493 103.422Z" fill="white"/>
<path d="M874.701 109.258C877.369 109.258 879.531 107.096 879.531 104.428C879.531 101.76 877.369 99.5979 874.701 99.5979C872.033 99.5979 869.871 101.76 869.871 104.428C869.871 107.096 872.033 109.258 874.701 109.258Z" fill="white"/>
<path d="M874.701 112.076C878.925 112.076 882.349 108.652 882.349 104.428C882.349 100.204 878.925 96.7804 874.701 96.7804C870.477 96.7804 867.053 100.204 867.053 104.428C867.053 108.652 870.477 112.076 874.701 112.076Z" fill="white"/>
<path d="M1049.19 49.8874L1037.32 53.1075L1045.97 61.7616L1049.19 49.8874Z" fill="white"/>
<path d="M1056.64 42.4408L1044.97 45.6609L1053.62 54.315L1056.64 42.4408Z" fill="white"/>
<path d="M1064.29 34.7931L1052.41 38.0132L1061.07 46.6673L1064.29 34.7931Z" fill="white"/>
<path d="M1071.73 27.3465L1059.86 30.5666L1068.51 39.2207L1071.73 27.3465Z" fill="white"/>
<path d="M1079.18 19.8999L1067.3 23.1201L1075.96 31.7741L1079.18 19.8999Z" fill="white"/>
<path d="M1086.63 12.4534L1074.95 15.4722L1083.61 24.3276L1086.63 12.4534Z" fill="white"/>
<path d="M1094.27 4.8056L1082.4 8.02572L1091.05 16.6798L1094.27 4.8056Z" fill="white"/>
<path d="M1101.72 -2.64093L1089.85 0.57919L1098.5 9.23327L1101.72 -2.64093Z" fill="white"/>
<path d="M1043.96 -39.2697V-37.0559H1009.74L931.254 40.0258H886.173L829.217 94.9691V197.409L835.657 203.849L834.047 205.46L827.003 198.416V93.9628L827.405 93.5603L885.166 37.8119H930.449L1008.74 -39.2697H1043.96Z" fill="white"/>
<path d="M1043.96 -67.2446V-65.0307H1027.66L927.833 33.7867H880.336L803.858 107.648V200.227L793.192 210.088L791.783 208.478L801.645 199.22V106.642L802.047 106.239L879.531 31.5729H927.028L1026.85 -67.2446H1043.96Z" fill="white"/>
<path d="M1043.96 -79.9238V-77.71H1030.88L925.821 27.1452H875.104L783.33 118.919V183.321L792.991 194.189L791.179 195.598L781.116 184.126V118.114L874.299 24.9314H925.016L1029.87 -79.9238H1043.96Z" fill="white"/>
<path d="M936.89 -53.1565L923.405 -39.6723H838.475L747.104 51.6987V185.132H744.89V50.6924L837.468 -41.8861H922.399L935.28 -54.7666L936.89 -53.1565Z" fill="white"/>
<path d="M934.273 -34.2383V-32.0244H840.689L754.953 53.7113V193.988L746.701 202.038L745.091 200.428L752.739 192.982V52.9063L839.884 -34.2383H934.273Z" fill="white"/>
<path d="M834.45 200.026C837.066 200.026 839.078 202.038 839.078 204.654C839.078 207.271 837.066 209.283 834.45 209.283C831.833 209.283 829.821 207.271 829.821 204.654C829.619 202.038 831.833 200.026 834.45 200.026Z" fill="white"/>
<path d="M791.984 204.453C794.6 204.453 796.613 206.466 796.613 209.082C796.613 211.698 794.6 213.711 791.984 213.711C789.368 213.711 787.355 211.698 787.355 209.082C787.355 206.667 789.569 204.453 791.984 204.453Z" fill="white"/>
<path d="M745.896 189.761C748.453 189.761 750.525 187.689 750.525 185.133C750.525 182.576 748.453 180.504 745.896 180.504C743.34 180.504 741.267 182.576 741.267 185.133C741.267 187.689 743.34 189.761 745.896 189.761Z" fill="white"/>
<path d="M745.896 196.604C748.513 196.604 750.525 198.617 750.525 201.233C750.525 203.85 748.513 205.862 745.896 205.862C743.28 205.862 741.267 203.85 741.267 201.233C741.267 198.617 743.28 196.604 745.896 196.604Z" fill="white"/>
<path d="M791.984 190.164C794.6 190.164 796.613 192.176 796.613 194.793C796.613 197.409 794.6 199.422 791.984 199.422C789.368 199.422 787.355 197.409 787.355 194.793C787.355 192.176 789.569 190.164 791.984 190.164Z" fill="white"/>
<path d="M718.324 644.201V692.302L763.204 737.182V825.735H765.418V736.176L720.538 691.295V644.201H718.324Z" fill="white"/>
<path d="M719.532 640.78C717.72 640.78 716.11 642.39 716.11 644.201C716.11 646.012 717.72 647.622 719.532 647.622C721.343 647.622 722.953 646.012 722.953 644.201C722.953 642.39 721.343 640.78 719.532 640.78Z" fill="white"/>
<path d="M764.412 830.566C767.08 830.566 769.242 828.403 769.242 825.735C769.242 823.068 767.08 820.905 764.412 820.905C761.744 820.905 759.582 823.068 759.582 825.735C759.582 828.403 761.744 830.566 764.412 830.566Z" fill="white"/>
<path d="M719.531 638.968C716.512 638.968 714.299 641.383 714.299 644.201C714.299 647.22 716.714 649.434 719.531 649.434C722.55 649.434 724.764 647.019 724.764 644.201C724.764 641.383 722.349 638.968 719.531 638.968Z" fill="white"/>
</g>
<path d="M295.28 511.673H292.06V535.22L148.564 680.126V748.956L41.4946 860.05H-92.9455L-107.034 875.547L-104.82 877.761L-91.5367 863.27H42.9034L43.3059 862.867L151.784 750.364V681.333L295.28 536.629V511.673Z" fill="url(#paint0_linear)"/>
<path fill-rule="evenodd" clip-rule="evenodd" d="M353.645 182.919C350.626 179.9 345.796 179.9 342.777 182.919C339.758 185.736 339.758 190.768 342.777 193.787C345.452 196.461 349.548 196.766 352.547 194.701L395.507 237.661V329.635L487.079 421.208L489.293 418.994L398.526 328.227V236.252L354.72 192.446C356.607 189.472 356.248 185.522 353.645 182.919Z" fill="url(#paint1_linear)"/>
<path fill-rule="evenodd" clip-rule="evenodd" d="M270.814 441.357C271.498 440.958 272.293 440.73 273.142 440.73C275.699 440.73 277.771 442.802 277.771 445.358C277.771 447.915 275.699 449.987 273.142 449.987C270.586 449.987 268.513 447.915 268.513 445.358C268.513 444.475 268.76 443.65 269.19 442.948L263.079 436.705H114.752L78.7273 400.881H-51.0839L-96.5681 446.365L-97.3731 460.855L-99.587 460.654L-98.7819 445.359L-52.0902 398.667H79.7336L115.557 434.491H264.086L270.814 441.357Z" fill="url(#paint2_linear)"/>
<path fill-rule="evenodd" clip-rule="evenodd" d="M417.645 -73.2823V-75.4961H431.733L536.588 29.3591H587.305L680.487 122.541V188.554L673.388 196.648C673.924 197.4 674.249 198.296 674.249 199.221C674.249 201.837 672.236 203.85 669.62 203.85C667.003 203.85 664.991 201.837 664.991 199.221C664.991 196.604 667.003 194.592 669.62 194.592C670.35 194.592 671.062 194.794 671.7 195.144L678.274 187.749V123.548L586.5 31.573H535.783L430.727 -73.2823H417.645Z" fill="url(#paint3_linear)"/>
<path fill-rule="evenodd" clip-rule="evenodd" d="M1120.05 277.898H1111.25V288.364H1121.72V279.851L1148.01 253.56V160.026C1149.47 160.026 1150.93 159.472 1152.03 158.365C1153.94 156.463 1154.2 153.519 1152.84 151.324L1309.62 -5.4585H1345.24V-7.8736H1308.61L1151.03 149.515C1148.83 148.145 1145.89 148.411 1143.98 150.315C1141.77 152.529 1141.77 156.151 1143.98 158.365C1144.46 158.845 1145.01 159.221 1145.59 159.493V252.353L1120.05 277.898ZM1097.9 182.919C1094.88 179.9 1090.05 179.9 1087.03 182.919C1084.42 185.522 1084.07 189.472 1085.95 192.447L1042.15 236.252V328.227L951.38 418.994L953.594 421.208L1045.17 329.635V237.661L1088.13 194.701C1091.12 196.766 1095.22 196.461 1097.9 193.787C1100.91 190.768 1100.71 185.736 1097.9 182.919Z" fill="url(#paint4_linear)"/>
<path fill-rule="evenodd" clip-rule="evenodd" d="M1302.27 276.809C1302.72 277.526 1302.98 278.385 1302.98 279.321C1302.98 281.736 1300.96 283.95 1298.35 283.95C1295.73 283.95 1293.72 281.937 1293.72 279.321C1293.72 276.705 1295.73 274.692 1298.35 274.692C1299.23 274.692 1300.04 274.921 1300.73 275.325L1311.03 265.032H1395.96L1487.33 173.661V40.0257H1489.54V174.466L1396.96 267.246H1311.83L1302.27 276.809Z" fill="url(#paint5_linear)"/>
<path fill-rule="evenodd" clip-rule="evenodd" d="M1351.43 503.274C1350.74 503.687 1349.93 503.925 1349.07 503.925C1346.51 503.925 1344.44 501.852 1344.44 499.296C1344.44 496.739 1346.51 494.667 1349.07 494.667C1351.62 494.667 1353.69 496.739 1353.69 499.296C1353.69 500.161 1353.46 500.971 1353.04 501.664L1374.22 522.843L1484.11 523.648L1516.11 555.648L1595.2 557.057L1667.66 484.604V475.547H1669.87V485.409L1596.21 559.27H1595.61L1515.3 557.66L1483.3 525.862L1373.22 525.057L1351.43 503.274Z" fill="url(#paint6_linear)"/>
<path fill-rule="evenodd" clip-rule="evenodd" d="M1130.9 370.491H1133.12V384.579L1028.26 489.635V540.352L935.078 633.534H869.066L861.063 626.374C860.317 626.893 859.402 627.171 858.399 627.094C855.783 627.094 853.77 625.082 853.77 622.465C853.77 619.849 855.783 617.836 858.399 617.836C861.016 617.836 863.028 619.849 863.028 622.465C863.028 623.287 862.83 624.068 862.477 624.748L869.871 631.321H934.273L1026.05 539.346V488.629L1130.9 383.774V370.491ZM1092.86 491.245L1106.35 477.761L1107.96 479.371L1095.08 492.05V577.182L1002.5 669.761H872.539C872.027 671.764 870.256 673.182 868.06 673.182C865.443 673.182 863.431 671.17 863.431 668.553C863.431 665.937 865.443 663.924 868.06 663.924C870.329 663.924 872.144 665.438 872.586 667.547H1001.49L1092.86 576.176V491.245Z" fill="url(#paint7_linear)"/>
<path fill-rule="evenodd" clip-rule="evenodd" d="M543.999 723.154C543.35 723.501 542.608 723.698 541.821 723.698C539.264 723.698 537.192 721.625 537.192 719.069C537.192 716.512 539.264 714.44 541.821 714.44C544.377 714.44 546.45 716.512 546.45 719.069C546.45 720.039 546.152 720.939 545.642 721.682L549.267 725.308V829.559L548.865 829.962L490.903 885.71H445.821L367.33 962.993H332.11V960.779H366.525L444.815 883.496H490.098L547.053 828.754V726.113L543.999 723.154Z" fill="url(#paint8_linear)"/>
<path fill-rule="evenodd" clip-rule="evenodd" d="M1087.83 761.736L1028.26 702.163L1030.88 699.346L1089.24 757.912H1200.74L1305.94 863.3C1309.19 860.406 1314.37 860.514 1317.67 863.622C1321.09 867.044 1321.09 872.276 1317.67 875.698C1314.25 879.119 1309.02 879.119 1305.59 875.698C1302.99 873.094 1302.37 869.44 1303.73 866.335L1199.13 761.736H1087.83Z" fill="url(#paint9_linear)"/>
<path fill-rule="evenodd" clip-rule="evenodd" d="M107.108 146.894V150.656H97.045V140.593H107.108V144.478H210.954L364.513 298.038L362.903 299.648L209.947 146.894H107.108Z" fill="url(#paint10_linear)"/>
</g>
<defs>
<linearGradient id="paint0_linear" x1="284.611" y1="566.62" x2="66.0144" y2="841.243" gradientUnits="userSpaceOnUse">
<stop stop-color="white" stop-opacity="0"/>
<stop offset="0.526042" stop-color="white"/>
<stop offset="1" stop-color="white" stop-opacity="0"/>
</linearGradient>
<linearGradient id="paint1_linear" x1="360.11" y1="188.936" x2="414.903" y2="329.233" gradientUnits="userSpaceOnUse">
<stop stop-color="white"/>
<stop offset="1" stop-color="white" stop-opacity="0"/>
</linearGradient>
<linearGradient id="paint2_linear" x1="272.068" y1="441.159" x2="46.3432" y2="408.561" gradientUnits="userSpaceOnUse">
<stop stop-color="white" stop-opacity="0"/>
<stop offset="0.510417" stop-color="white"/>
<stop offset="1" stop-color="white" stop-opacity="0"/>
</linearGradient>
<linearGradient id="paint3_linear" x1="543.074" y1="20.3589" x2="680.487" y2="203.85" gradientUnits="userSpaceOnUse">
<stop stop-color="white" stop-opacity="0"/>
<stop offset="0.510417" stop-color="white"/>
<stop offset="1" stop-color="white" stop-opacity="0"/>
</linearGradient>
<linearGradient id="paint4_linear" x1="1267.63" y1="43.3448" x2="991.452" y2="377.763" gradientUnits="userSpaceOnUse">
<stop stop-color="white" stop-opacity="0"/>
<stop offset="0.494792" stop-color="white"/>
<stop offset="1" stop-color="white" stop-opacity="0"/>
</linearGradient>
<linearGradient id="paint5_linear" x1="1293.72" y1="286.494" x2="1447.65" y2="209.48" gradientUnits="userSpaceOnUse">
<stop stop-color="white"/>
<stop offset="1" stop-color="white" stop-opacity="0"/>
</linearGradient>
<linearGradient id="paint6_linear" x1="1453.58" y1="524.303" x2="1348.97" y2="496.309" gradientUnits="userSpaceOnUse">
<stop stop-color="white"/>
<stop offset="1" stop-color="white" stop-opacity="0"/>
</linearGradient>
<linearGradient id="paint7_linear" x1="1045.12" y1="529.994" x2="853.77" y2="673.182" gradientUnits="userSpaceOnUse">
<stop stop-color="white" stop-opacity="0"/>
<stop offset="0.515625" stop-color="white"/>
<stop offset="1" stop-color="white" stop-opacity="0"/>
</linearGradient>
<linearGradient id="paint8_linear" x1="544.628" y1="710.046" x2="479.357" y2="863.705" gradientUnits="userSpaceOnUse">
<stop stop-color="white"/>
<stop offset="1" stop-color="white" stop-opacity="0"/>
</linearGradient>
<linearGradient id="paint9_linear" x1="1309.35" y1="865.754" x2="1142.12" y2="732.414" gradientUnits="userSpaceOnUse">
<stop stop-color="white"/>
<stop offset="1" stop-color="white" stop-opacity="0"/>
</linearGradient>
<linearGradient id="paint10_linear" x1="104.101" y1="142.28" x2="266.576" y2="228.959" gradientUnits="userSpaceOnUse">
<stop stop-color="white"/>
<stop offset="1" stop-color="white" stop-opacity="0"/>
</linearGradient>
<clipPath id="clip0">
<rect width="1440" height="900" fill="white" transform="translate(0.5)"/>
</clipPath>
</defs>
</svg>
